G75*
G70*
%OFA0B0*%
%FSLAX24Y24*%
%IPPOS*%
%LPD*%
%AMOC8*
5,1,8,0,0,1.08239X$1,22.5*
%
%ADD10C,0.0000*%
%ADD11C,0.0760*%
%ADD12C,0.0520*%
%ADD13C,0.0740*%
%ADD14C,0.0650*%
%ADD15C,0.0740*%
%ADD16R,0.0740X0.0740*%
%ADD17OC8,0.0740*%
%ADD18C,0.0700*%
%ADD19C,0.0100*%
%ADD20C,0.0360*%
D10*
X000150Y003319D02*
X000150Y016704D01*
X027315Y016704D01*
X027315Y003319D01*
X000150Y003319D01*
D11*
X011233Y009571D03*
X012233Y009571D03*
X013233Y009571D03*
X014233Y009571D03*
X015233Y009571D03*
X016233Y009571D03*
X016233Y015571D03*
X015233Y015571D03*
X014233Y015571D03*
X013233Y015571D03*
X012233Y015571D03*
X011233Y015571D03*
D12*
X011233Y007638D02*
X011233Y007118D01*
X010233Y007118D02*
X010233Y007638D01*
X009233Y007638D02*
X009233Y007118D01*
X008233Y007118D02*
X008233Y007638D01*
X007233Y007638D02*
X007233Y007118D01*
X007233Y004638D02*
X007233Y004118D01*
X008233Y004118D02*
X008233Y004638D01*
X009233Y004638D02*
X009233Y004118D01*
X010233Y004118D02*
X010233Y004638D01*
X011233Y004638D02*
X011233Y004118D01*
X012233Y004118D02*
X012233Y004638D01*
X013233Y004638D02*
X013233Y004118D01*
X014233Y004118D02*
X014233Y004638D01*
X015233Y004638D02*
X015233Y004118D01*
X016233Y004118D02*
X016233Y004638D01*
X017233Y004638D02*
X017233Y004118D01*
X018233Y004118D02*
X018233Y004638D01*
X019233Y004638D02*
X019233Y004118D01*
X020233Y004118D02*
X020233Y004638D01*
X020233Y007118D02*
X020233Y007638D01*
X019233Y007638D02*
X019233Y007118D01*
X018233Y007118D02*
X018233Y007638D01*
X017233Y007638D02*
X017233Y007118D01*
X016233Y007118D02*
X016233Y007638D01*
X015233Y007638D02*
X015233Y007118D01*
X014233Y007118D02*
X014233Y007638D01*
X013233Y007638D02*
X013233Y007118D01*
X012233Y007118D02*
X012233Y007638D01*
D13*
X004383Y008146D03*
X001823Y008146D03*
X001823Y009712D03*
X004383Y009712D03*
X004383Y011492D03*
X004383Y013059D03*
X001823Y013059D03*
X001823Y011492D03*
X001823Y014839D03*
X004383Y014839D03*
X004383Y006366D03*
X001823Y006366D03*
X021804Y006984D03*
X021804Y003984D03*
X022394Y013039D03*
X025241Y015130D03*
X026241Y015130D03*
X022394Y016039D03*
D14*
X003103Y004893D03*
X003103Y003893D03*
D15*
X001504Y003909D02*
X000764Y003909D01*
X000764Y004909D02*
X001504Y004909D01*
D16*
X024770Y006479D03*
D17*
X025770Y006479D03*
X025770Y005479D03*
X024770Y005479D03*
X024770Y004479D03*
X025770Y004479D03*
D18*
X025886Y010199D03*
X022894Y010199D03*
D19*
X023369Y010411D02*
X024490Y010411D01*
X024490Y010509D02*
X023319Y010509D01*
X023335Y010493D02*
X023188Y010639D01*
X022997Y010719D01*
X022791Y010719D01*
X022610Y010644D01*
X022610Y012544D01*
X022700Y012581D01*
X022852Y012733D01*
X022934Y012932D01*
X022934Y013147D01*
X022855Y013339D01*
X024490Y013339D01*
X024490Y007019D01*
X024330Y007019D01*
X024230Y006919D01*
X024230Y006038D01*
X024330Y005939D01*
X024466Y005939D01*
X024230Y005702D01*
X024230Y005255D01*
X024506Y004979D01*
X024266Y004739D01*
X021970Y004739D01*
X021970Y005330D01*
X021841Y005459D01*
X021060Y006240D01*
X021060Y006348D01*
X021007Y006477D01*
X020908Y006575D01*
X020780Y006629D01*
X020651Y006629D01*
X022481Y008459D01*
X022610Y008588D01*
X022610Y009753D01*
X022791Y009679D01*
X022997Y009679D01*
X023188Y009758D01*
X023335Y009904D01*
X023414Y010095D01*
X023414Y010302D01*
X023335Y010493D01*
X023220Y010608D02*
X024490Y010608D01*
X024490Y010706D02*
X023028Y010706D01*
X022760Y010706D02*
X022610Y010706D01*
X022610Y010805D02*
X024490Y010805D01*
X024490Y010903D02*
X022610Y010903D01*
X022610Y011002D02*
X024490Y011002D01*
X024490Y011100D02*
X022610Y011100D01*
X022610Y011199D02*
X024490Y011199D01*
X024490Y011297D02*
X022610Y011297D01*
X022610Y011396D02*
X024490Y011396D01*
X024490Y011494D02*
X022610Y011494D01*
X022610Y011593D02*
X024490Y011593D01*
X024490Y011691D02*
X022610Y011691D01*
X022610Y011790D02*
X024490Y011790D01*
X024490Y011888D02*
X022610Y011888D01*
X022610Y011987D02*
X024490Y011987D01*
X024490Y012085D02*
X022610Y012085D01*
X022610Y012184D02*
X024490Y012184D01*
X024490Y012282D02*
X022610Y012282D01*
X022610Y012381D02*
X024490Y012381D01*
X024490Y012479D02*
X022610Y012479D01*
X022691Y012578D02*
X024490Y012578D01*
X024490Y012676D02*
X022795Y012676D01*
X022869Y012775D02*
X024490Y012775D01*
X024490Y012873D02*
X022910Y012873D01*
X022934Y012972D02*
X024490Y012972D01*
X024490Y013070D02*
X022934Y013070D01*
X022925Y013169D02*
X024490Y013169D01*
X024490Y013267D02*
X022884Y013267D01*
X022394Y013039D02*
X022390Y012999D01*
X022390Y008679D01*
X020310Y006599D01*
X020310Y004439D01*
X020233Y004378D01*
X019803Y004402D02*
X019663Y004402D01*
X019663Y004304D02*
X019803Y004304D01*
X019803Y004205D02*
X019663Y004205D01*
X019663Y004107D02*
X019803Y004107D01*
X019803Y004032D02*
X019868Y003874D01*
X019989Y003753D01*
X020147Y003688D01*
X020318Y003688D01*
X020476Y003753D01*
X020597Y003874D01*
X020663Y004032D01*
X020663Y004723D01*
X020597Y004881D01*
X020530Y004948D01*
X020530Y005974D01*
X020640Y005929D01*
X020749Y005929D01*
X021530Y005148D01*
X021530Y004455D01*
X021498Y004442D01*
X021346Y004290D01*
X021264Y004091D01*
X021264Y003877D01*
X021346Y003678D01*
X021498Y003526D01*
X021588Y003489D01*
X003354Y003489D01*
X003412Y003531D01*
X003465Y003584D01*
X003509Y003644D01*
X003543Y003711D01*
X003566Y003782D01*
X003578Y003856D01*
X003578Y003875D01*
X003122Y003875D01*
X003122Y003912D01*
X003578Y003912D01*
X003578Y003931D01*
X003566Y004005D01*
X003543Y004076D01*
X003509Y004142D01*
X003465Y004203D01*
X003412Y004256D01*
X003352Y004300D01*
X003285Y004334D01*
X003214Y004357D01*
X003140Y004368D01*
X003122Y004368D01*
X003122Y003912D01*
X003084Y003912D01*
X003084Y003875D01*
X002628Y003875D01*
X002628Y003856D01*
X002639Y003782D01*
X002663Y003711D01*
X002696Y003644D01*
X002740Y003584D01*
X002793Y003531D01*
X002852Y003489D01*
X001810Y003489D01*
X001843Y003513D01*
X001901Y003570D01*
X001949Y003637D01*
X001986Y003710D01*
X002011Y003787D01*
X002023Y003859D01*
X001184Y003859D01*
X001184Y003959D01*
X002023Y003959D01*
X002011Y004031D01*
X001986Y004109D01*
X001949Y004182D01*
X001901Y004248D01*
X001843Y004306D01*
X001777Y004354D01*
X001704Y004391D01*
X001682Y004398D01*
X001810Y004451D01*
X001962Y004603D01*
X002044Y004802D01*
X002044Y005017D01*
X001962Y005215D01*
X001810Y005367D01*
X001612Y005449D01*
X000657Y005449D01*
X000458Y005367D01*
X000320Y005229D01*
X000320Y016534D01*
X022179Y016534D01*
X022088Y016497D01*
X021936Y016345D01*
X021854Y016147D01*
X021854Y015932D01*
X021936Y015733D01*
X022088Y015581D01*
X022287Y015499D01*
X022502Y015499D01*
X022700Y015581D01*
X022852Y015733D01*
X022934Y015932D01*
X022934Y016147D01*
X022852Y016345D01*
X022700Y016497D01*
X022609Y016534D01*
X027145Y016534D01*
X027145Y003489D01*
X022019Y003489D01*
X022109Y003526D01*
X022261Y003678D01*
X022344Y003877D01*
X022344Y004091D01*
X022261Y004290D01*
X022253Y004299D01*
X024230Y004299D01*
X024230Y004255D01*
X024546Y003939D01*
X024994Y003939D01*
X025284Y004229D01*
X025555Y003959D01*
X025720Y003959D01*
X025720Y004429D01*
X025820Y004429D01*
X025820Y004529D01*
X026290Y004529D01*
X026290Y004694D01*
X026020Y004964D01*
X026310Y005255D01*
X026310Y005702D01*
X026034Y005979D01*
X026310Y006255D01*
X026310Y006702D01*
X025994Y007019D01*
X025546Y007019D01*
X025310Y006782D01*
X025310Y006919D01*
X025210Y007019D01*
X024930Y007019D01*
X024930Y013650D01*
X024801Y013779D01*
X021819Y013779D01*
X021690Y013650D01*
X017831Y009791D01*
X017740Y009829D01*
X017600Y009829D01*
X017472Y009775D01*
X017373Y009677D01*
X017320Y009548D01*
X017320Y009409D01*
X017373Y009280D01*
X017472Y009182D01*
X017600Y009129D01*
X017610Y009129D01*
X017610Y008050D01*
X017519Y007959D01*
X017476Y008002D01*
X017318Y008068D01*
X017147Y008068D01*
X017010Y008011D01*
X017010Y015890D01*
X016690Y016210D01*
X016561Y016339D01*
X013179Y016339D01*
X013050Y016210D01*
X013050Y016090D01*
X012921Y016037D01*
X012766Y015882D01*
X012733Y015801D01*
X012699Y015882D01*
X012544Y016037D01*
X012450Y016076D01*
X012450Y016210D01*
X012321Y016339D01*
X010939Y016339D01*
X010810Y016210D01*
X008570Y013970D01*
X008570Y007908D01*
X008476Y008002D01*
X008318Y008068D01*
X008147Y008068D01*
X007989Y008002D01*
X007868Y007881D01*
X007803Y007723D01*
X007803Y007032D01*
X007868Y006874D01*
X007989Y006753D01*
X008147Y006688D01*
X008318Y006688D01*
X008476Y006753D01*
X008570Y006847D01*
X008570Y005863D01*
X008460Y005909D01*
X008320Y005909D01*
X008192Y005855D01*
X008093Y005757D01*
X008040Y005628D01*
X008040Y005520D01*
X007499Y004979D01*
X007476Y005002D01*
X007318Y005068D01*
X007147Y005068D01*
X006989Y005002D01*
X006868Y004881D01*
X006803Y004723D01*
X006803Y004032D01*
X006868Y003874D01*
X006989Y003753D01*
X007147Y003688D01*
X007318Y003688D01*
X007476Y003753D01*
X007597Y003874D01*
X007663Y004032D01*
X007663Y004520D01*
X007803Y004660D01*
X007803Y004032D01*
X007868Y003874D01*
X007989Y003753D01*
X008147Y003688D01*
X008318Y003688D01*
X008476Y003753D01*
X008597Y003874D01*
X008663Y004032D01*
X008663Y004480D01*
X008803Y004620D01*
X008803Y004032D01*
X008868Y003874D01*
X008989Y003753D01*
X009147Y003688D01*
X009318Y003688D01*
X009476Y003753D01*
X009597Y003874D01*
X009663Y004032D01*
X009663Y004520D01*
X009803Y004660D01*
X009803Y004032D01*
X009868Y003874D01*
X009989Y003753D01*
X010147Y003688D01*
X010318Y003688D01*
X010476Y003753D01*
X010597Y003874D01*
X010663Y004032D01*
X010663Y004480D01*
X010721Y004539D01*
X010803Y004620D01*
X010803Y004032D01*
X010868Y003874D01*
X010989Y003753D01*
X011147Y003688D01*
X011318Y003688D01*
X011476Y003753D01*
X011597Y003874D01*
X011663Y004032D01*
X011663Y004520D01*
X011803Y004660D01*
X011803Y004032D01*
X011868Y003874D01*
X011989Y003753D01*
X012147Y003688D01*
X012318Y003688D01*
X012476Y003753D01*
X012597Y003874D01*
X012663Y004032D01*
X012663Y004480D01*
X012721Y004539D01*
X012803Y004620D01*
X012803Y004032D01*
X012868Y003874D01*
X012989Y003753D01*
X013147Y003688D01*
X013318Y003688D01*
X013476Y003753D01*
X013597Y003874D01*
X013663Y004032D01*
X013663Y004520D01*
X013825Y004682D01*
X013823Y004670D01*
X013823Y004408D01*
X014203Y004408D01*
X014203Y005048D01*
X014200Y005048D01*
X014188Y005046D01*
X014321Y005179D01*
X014450Y005308D01*
X014450Y006742D01*
X014476Y006753D01*
X014597Y006874D01*
X014663Y007032D01*
X014663Y007723D01*
X014597Y007881D01*
X014476Y008002D01*
X014318Y008068D01*
X014147Y008068D01*
X013989Y008002D01*
X013868Y007881D01*
X013803Y007723D01*
X013803Y007032D01*
X013868Y006874D01*
X013989Y006753D01*
X014010Y006745D01*
X014010Y005490D01*
X013499Y004979D01*
X013476Y005002D01*
X013318Y005068D01*
X013147Y005068D01*
X012989Y005002D01*
X012868Y004881D01*
X012850Y004837D01*
X012850Y006969D01*
X012853Y006960D01*
X012882Y006903D01*
X012920Y006851D01*
X012966Y006805D01*
X013018Y006767D01*
X013075Y006738D01*
X013137Y006718D01*
X013200Y006708D01*
X013203Y006708D01*
X013203Y007348D01*
X013263Y007348D01*
X013263Y007408D01*
X013203Y007408D01*
X013203Y008048D01*
X013200Y008048D01*
X013137Y008038D01*
X013075Y008018D01*
X013018Y007988D01*
X012966Y007950D01*
X012920Y007905D01*
X012882Y007853D01*
X012853Y007795D01*
X012850Y007787D01*
X012850Y008404D01*
X012927Y008480D01*
X012980Y008609D01*
X012980Y008748D01*
X012927Y008877D01*
X012828Y008975D01*
X012700Y009029D01*
X012560Y009029D01*
X012432Y008975D01*
X012333Y008877D01*
X012280Y008748D01*
X012280Y008609D01*
X012333Y008480D01*
X012410Y008404D01*
X012410Y008030D01*
X012318Y008068D01*
X012147Y008068D01*
X012050Y008027D01*
X012050Y009051D01*
X012123Y009021D01*
X012342Y009021D01*
X012544Y009104D01*
X012699Y009259D01*
X012733Y009341D01*
X012766Y009259D01*
X012921Y009104D01*
X013123Y009021D01*
X013342Y009021D01*
X013544Y009104D01*
X013699Y009259D01*
X013733Y009341D01*
X013766Y009259D01*
X013921Y009104D01*
X014123Y009021D01*
X014342Y009021D01*
X014544Y009104D01*
X014699Y009259D01*
X014733Y009341D01*
X014766Y009259D01*
X014921Y009104D01*
X015123Y009021D01*
X015342Y009021D01*
X015450Y009065D01*
X015450Y008013D01*
X015318Y008068D01*
X015147Y008068D01*
X014989Y008002D01*
X014868Y007881D01*
X014803Y007723D01*
X014803Y007032D01*
X014868Y006874D01*
X014989Y006753D01*
X015147Y006688D01*
X015318Y006688D01*
X015450Y006742D01*
X015450Y005148D01*
X015480Y005118D01*
X015480Y005009D01*
X015487Y004991D01*
X015476Y005002D01*
X015318Y005068D01*
X015147Y005068D01*
X014989Y005002D01*
X014868Y004881D01*
X014803Y004723D01*
X014803Y004032D01*
X014868Y003874D01*
X014989Y003753D01*
X015147Y003688D01*
X015318Y003688D01*
X015476Y003753D01*
X015597Y003874D01*
X015663Y004032D01*
X015663Y004723D01*
X015640Y004779D01*
X015760Y004729D01*
X015805Y004729D01*
X015803Y004723D01*
X015803Y004032D01*
X015868Y003874D01*
X015989Y003753D01*
X016147Y003688D01*
X016318Y003688D01*
X016476Y003753D01*
X016597Y003874D01*
X016663Y004032D01*
X016663Y004723D01*
X016597Y004881D01*
X016476Y005002D01*
X016318Y005068D01*
X016180Y005068D01*
X016180Y005148D01*
X016127Y005277D01*
X016028Y005375D01*
X015900Y005429D01*
X015890Y005429D01*
X015890Y006852D01*
X015989Y006753D01*
X016147Y006688D01*
X016318Y006688D01*
X016330Y006693D01*
X016330Y005754D01*
X016253Y005677D01*
X016200Y005548D01*
X016200Y005409D01*
X016253Y005280D01*
X016352Y005182D01*
X016480Y005129D01*
X016620Y005129D01*
X016748Y005182D01*
X016847Y005280D01*
X016900Y005409D01*
X016900Y005548D01*
X016847Y005677D01*
X016770Y005754D01*
X016770Y006708D01*
X017050Y006428D01*
X017050Y005027D01*
X016989Y005002D01*
X016868Y004881D01*
X016803Y004723D01*
X016803Y004032D01*
X016868Y003874D01*
X016989Y003753D01*
X017147Y003688D01*
X017318Y003688D01*
X017476Y003753D01*
X017597Y003874D01*
X017663Y004032D01*
X017663Y004723D01*
X017597Y004881D01*
X017490Y004988D01*
X017490Y006610D01*
X017385Y006715D01*
X017476Y006753D01*
X017597Y006874D01*
X017663Y007032D01*
X017663Y007480D01*
X017803Y007620D01*
X017803Y007032D01*
X017868Y006874D01*
X017989Y006753D01*
X018147Y006688D01*
X018318Y006688D01*
X018476Y006753D01*
X018597Y006874D01*
X018663Y007032D01*
X018663Y007615D01*
X018803Y007475D01*
X018803Y007032D01*
X018868Y006874D01*
X018989Y006753D01*
X019147Y006688D01*
X019318Y006688D01*
X019476Y006753D01*
X019597Y006874D01*
X019663Y007032D01*
X019663Y007723D01*
X019597Y007881D01*
X019476Y008002D01*
X019318Y008068D01*
X019147Y008068D01*
X018989Y008002D01*
X018943Y007956D01*
X018930Y007970D01*
X018930Y009124D01*
X019007Y009200D01*
X019060Y009329D01*
X019060Y009468D01*
X019007Y009597D01*
X018908Y009695D01*
X018780Y009749D01*
X018640Y009749D01*
X018512Y009695D01*
X018470Y009654D01*
X018428Y009695D01*
X018378Y009716D01*
X021886Y013223D01*
X021854Y013147D01*
X021854Y012932D01*
X021936Y012733D01*
X022088Y012581D01*
X022170Y012547D01*
X022170Y008770D01*
X020663Y007262D01*
X020663Y007723D01*
X020597Y007881D01*
X020476Y008002D01*
X020318Y008068D01*
X020147Y008068D01*
X019989Y008002D01*
X019868Y007881D01*
X019803Y007723D01*
X019803Y007032D01*
X019868Y006874D01*
X019989Y006753D01*
X020105Y006705D01*
X020090Y006690D01*
X020090Y005044D01*
X019989Y005002D01*
X019868Y004881D01*
X019803Y004723D01*
X019803Y004032D01*
X019813Y004008D02*
X019653Y004008D01*
X019663Y004032D02*
X019663Y004723D01*
X019597Y004881D01*
X019476Y005002D01*
X019318Y005068D01*
X019147Y005068D01*
X018989Y005002D01*
X018868Y004881D01*
X018803Y004723D01*
X018803Y004032D01*
X018868Y003874D01*
X018989Y003753D01*
X019147Y003688D01*
X019318Y003688D01*
X019476Y003753D01*
X019597Y003874D01*
X019663Y004032D01*
X019612Y003910D02*
X019853Y003910D01*
X019931Y003811D02*
X019534Y003811D01*
X019378Y003713D02*
X020087Y003713D01*
X020378Y003713D02*
X021331Y003713D01*
X021291Y003811D02*
X020534Y003811D01*
X020612Y003910D02*
X021264Y003910D01*
X021264Y004008D02*
X020653Y004008D01*
X020663Y004107D02*
X021270Y004107D01*
X021311Y004205D02*
X020663Y004205D01*
X020663Y004304D02*
X021360Y004304D01*
X021458Y004402D02*
X020663Y004402D01*
X020663Y004501D02*
X021530Y004501D01*
X021530Y004599D02*
X020663Y004599D01*
X020663Y004698D02*
X021530Y004698D01*
X021530Y004796D02*
X020632Y004796D01*
X020584Y004895D02*
X021530Y004895D01*
X021530Y004993D02*
X020530Y004993D01*
X020530Y005092D02*
X021530Y005092D01*
X021487Y005190D02*
X020530Y005190D01*
X020530Y005289D02*
X021389Y005289D01*
X021290Y005387D02*
X020530Y005387D01*
X020530Y005486D02*
X021192Y005486D01*
X021093Y005584D02*
X020530Y005584D01*
X020530Y005683D02*
X020995Y005683D01*
X020896Y005781D02*
X020530Y005781D01*
X020530Y005880D02*
X020798Y005880D01*
X021125Y006175D02*
X024230Y006175D01*
X024230Y006077D02*
X021223Y006077D01*
X021322Y005978D02*
X024290Y005978D01*
X024407Y005880D02*
X021420Y005880D01*
X021519Y005781D02*
X024309Y005781D01*
X024230Y005683D02*
X021617Y005683D01*
X021716Y005584D02*
X024230Y005584D01*
X024230Y005486D02*
X021814Y005486D01*
X021913Y005387D02*
X024230Y005387D01*
X024230Y005289D02*
X021970Y005289D01*
X021970Y005190D02*
X024295Y005190D01*
X024393Y005092D02*
X021970Y005092D01*
X021970Y004993D02*
X024492Y004993D01*
X024422Y004895D02*
X021970Y004895D01*
X021970Y004796D02*
X024324Y004796D01*
X024710Y004519D02*
X024770Y004479D01*
X024710Y004519D02*
X021750Y004519D01*
X021750Y005239D01*
X020710Y006279D01*
X021060Y006274D02*
X024230Y006274D01*
X024230Y006372D02*
X021050Y006372D01*
X021009Y006471D02*
X021632Y006471D01*
X021696Y006444D02*
X021911Y006444D01*
X022109Y006526D01*
X022261Y006678D01*
X022344Y006877D01*
X022344Y007091D01*
X022261Y007290D01*
X022109Y007442D01*
X021911Y007524D01*
X021696Y007524D01*
X021498Y007442D01*
X021346Y007290D01*
X021264Y007091D01*
X021264Y006877D01*
X021346Y006678D01*
X021498Y006526D01*
X021696Y006444D01*
X021455Y006569D02*
X020914Y006569D01*
X020690Y006668D02*
X021356Y006668D01*
X021309Y006766D02*
X020789Y006766D01*
X020887Y006865D02*
X021268Y006865D01*
X021264Y006963D02*
X020986Y006963D01*
X021084Y007062D02*
X021264Y007062D01*
X021292Y007160D02*
X021183Y007160D01*
X021281Y007259D02*
X021333Y007259D01*
X021380Y007357D02*
X021413Y007357D01*
X021478Y007456D02*
X021531Y007456D01*
X021577Y007554D02*
X024490Y007554D01*
X024490Y007456D02*
X022076Y007456D01*
X022194Y007357D02*
X024490Y007357D01*
X024490Y007259D02*
X022274Y007259D01*
X022315Y007160D02*
X024490Y007160D01*
X024490Y007062D02*
X022344Y007062D01*
X022344Y006963D02*
X024274Y006963D01*
X024230Y006865D02*
X022339Y006865D01*
X022298Y006766D02*
X024230Y006766D01*
X024230Y006668D02*
X022251Y006668D01*
X022152Y006569D02*
X024230Y006569D01*
X024230Y006471D02*
X021975Y006471D01*
X020757Y007357D02*
X020663Y007357D01*
X020663Y007456D02*
X020856Y007456D01*
X020954Y007554D02*
X020663Y007554D01*
X020663Y007653D02*
X021053Y007653D01*
X021151Y007751D02*
X020651Y007751D01*
X020610Y007850D02*
X021250Y007850D01*
X021348Y007948D02*
X020530Y007948D01*
X020369Y008047D02*
X021447Y008047D01*
X021545Y008145D02*
X018930Y008145D01*
X018930Y008047D02*
X019096Y008047D01*
X018930Y008244D02*
X021644Y008244D01*
X021742Y008342D02*
X018930Y008342D01*
X018930Y008441D02*
X021841Y008441D01*
X021939Y008539D02*
X018930Y008539D01*
X018930Y008638D02*
X022038Y008638D01*
X022136Y008736D02*
X018930Y008736D01*
X018930Y008835D02*
X022170Y008835D01*
X022170Y008933D02*
X018930Y008933D01*
X018930Y009032D02*
X022170Y009032D01*
X022170Y009130D02*
X018936Y009130D01*
X019018Y009229D02*
X022170Y009229D01*
X022170Y009327D02*
X019059Y009327D01*
X019060Y009426D02*
X022170Y009426D01*
X022170Y009524D02*
X019037Y009524D01*
X018981Y009623D02*
X022170Y009623D01*
X022170Y009721D02*
X018846Y009721D01*
X018574Y009721D02*
X018384Y009721D01*
X018482Y009820D02*
X022170Y009820D01*
X022170Y009918D02*
X018581Y009918D01*
X018679Y010017D02*
X022170Y010017D01*
X022170Y010115D02*
X018778Y010115D01*
X018876Y010214D02*
X022170Y010214D01*
X022170Y010312D02*
X018975Y010312D01*
X019073Y010411D02*
X022170Y010411D01*
X022170Y010509D02*
X019172Y010509D01*
X019270Y010608D02*
X022170Y010608D01*
X022170Y010706D02*
X019369Y010706D01*
X019467Y010805D02*
X022170Y010805D01*
X022170Y010903D02*
X019566Y010903D01*
X019664Y011002D02*
X022170Y011002D01*
X022170Y011100D02*
X019763Y011100D01*
X019861Y011199D02*
X022170Y011199D01*
X022170Y011297D02*
X019960Y011297D01*
X020058Y011396D02*
X022170Y011396D01*
X022170Y011494D02*
X020157Y011494D01*
X020255Y011593D02*
X022170Y011593D01*
X022170Y011691D02*
X020354Y011691D01*
X020452Y011790D02*
X022170Y011790D01*
X022170Y011888D02*
X020551Y011888D01*
X020649Y011987D02*
X022170Y011987D01*
X022170Y012085D02*
X020748Y012085D01*
X020846Y012184D02*
X022170Y012184D01*
X022170Y012282D02*
X020945Y012282D01*
X021043Y012381D02*
X022170Y012381D01*
X022170Y012479D02*
X021142Y012479D01*
X021240Y012578D02*
X022097Y012578D01*
X021993Y012676D02*
X021339Y012676D01*
X021437Y012775D02*
X021919Y012775D01*
X021878Y012873D02*
X021536Y012873D01*
X021634Y012972D02*
X021854Y012972D01*
X021854Y013070D02*
X021733Y013070D01*
X021831Y013169D02*
X021863Y013169D01*
X021504Y013464D02*
X017010Y013464D01*
X017010Y013366D02*
X021406Y013366D01*
X021307Y013267D02*
X017010Y013267D01*
X017010Y013169D02*
X021209Y013169D01*
X021110Y013070D02*
X017010Y013070D01*
X017010Y012972D02*
X021012Y012972D01*
X020913Y012873D02*
X017010Y012873D01*
X017010Y012775D02*
X020815Y012775D01*
X020716Y012676D02*
X017010Y012676D01*
X017010Y012578D02*
X020618Y012578D01*
X020519Y012479D02*
X017010Y012479D01*
X017010Y012381D02*
X020421Y012381D01*
X020322Y012282D02*
X017010Y012282D01*
X017010Y012184D02*
X020224Y012184D01*
X020125Y012085D02*
X017010Y012085D01*
X017010Y011987D02*
X020027Y011987D01*
X019928Y011888D02*
X017010Y011888D01*
X017010Y011790D02*
X019830Y011790D01*
X019731Y011691D02*
X017010Y011691D01*
X017010Y011593D02*
X019633Y011593D01*
X019534Y011494D02*
X017010Y011494D01*
X017010Y011396D02*
X019436Y011396D01*
X019337Y011297D02*
X017010Y011297D01*
X017010Y011199D02*
X019239Y011199D01*
X019140Y011100D02*
X017010Y011100D01*
X017010Y011002D02*
X019042Y011002D01*
X018943Y010903D02*
X017010Y010903D01*
X017010Y010805D02*
X018845Y010805D01*
X018746Y010706D02*
X017010Y010706D01*
X017010Y010608D02*
X018648Y010608D01*
X018549Y010509D02*
X017010Y010509D01*
X017010Y010411D02*
X018451Y010411D01*
X018352Y010312D02*
X017010Y010312D01*
X017010Y010214D02*
X018254Y010214D01*
X018155Y010115D02*
X017010Y010115D01*
X017010Y010017D02*
X018057Y010017D01*
X017958Y009918D02*
X017010Y009918D01*
X017010Y009820D02*
X017579Y009820D01*
X017761Y009820D02*
X017860Y009820D01*
X017830Y009479D02*
X017670Y009479D01*
X017830Y009479D02*
X021910Y013559D01*
X024710Y013559D01*
X024710Y006519D01*
X024770Y006479D01*
X025310Y006175D02*
X025506Y005979D01*
X025270Y005742D01*
X025074Y005939D01*
X025210Y005939D01*
X025310Y006038D01*
X025310Y006175D01*
X025310Y006077D02*
X025408Y006077D01*
X025506Y005978D02*
X025250Y005978D01*
X025133Y005880D02*
X025407Y005880D01*
X025309Y005781D02*
X025231Y005781D01*
X025270Y005215D02*
X025520Y004964D01*
X025284Y004728D01*
X025034Y004979D01*
X025270Y005215D01*
X025245Y005190D02*
X025295Y005190D01*
X025393Y005092D02*
X025147Y005092D01*
X025048Y004993D02*
X025492Y004993D01*
X025451Y004895D02*
X025118Y004895D01*
X025216Y004796D02*
X025352Y004796D01*
X025270Y004999D02*
X025270Y010199D01*
X025350Y010279D02*
X026230Y011159D01*
X026230Y015079D01*
X026241Y015130D01*
X026271Y015139D02*
X027145Y015139D01*
X027145Y015237D02*
X026750Y015237D01*
X026748Y015251D02*
X026722Y015329D01*
X026685Y015402D01*
X026637Y015468D01*
X026579Y015526D01*
X026513Y015574D01*
X026440Y015612D01*
X026362Y015637D01*
X026281Y015650D01*
X026271Y015650D01*
X026271Y015160D01*
X026761Y015160D01*
X026761Y015171D01*
X026748Y015251D01*
X026719Y015336D02*
X027145Y015336D01*
X027145Y015434D02*
X026662Y015434D01*
X026571Y015533D02*
X027145Y015533D01*
X027145Y015631D02*
X026380Y015631D01*
X026271Y015631D02*
X026211Y015631D01*
X026211Y015650D02*
X026200Y015650D01*
X026119Y015637D01*
X026041Y015612D01*
X025968Y015574D01*
X025902Y015526D01*
X025844Y015468D01*
X025796Y015402D01*
X025759Y015329D01*
X025751Y015307D01*
X025698Y015436D01*
X025546Y015587D01*
X025348Y015670D01*
X025133Y015670D01*
X024935Y015587D01*
X024783Y015436D01*
X024701Y015237D01*
X017010Y015237D01*
X017010Y015139D02*
X024701Y015139D01*
X024701Y015237D02*
X024701Y015022D01*
X024783Y014824D01*
X024935Y014672D01*
X025133Y014590D01*
X025348Y014590D01*
X025546Y014672D01*
X025698Y014824D01*
X025751Y014952D01*
X025759Y014930D01*
X025796Y014857D01*
X025844Y014791D01*
X025902Y014733D01*
X025968Y014685D01*
X026041Y014648D01*
X026119Y014622D01*
X026200Y014610D01*
X026211Y014610D01*
X026211Y015100D01*
X026271Y015100D01*
X026271Y015160D01*
X026211Y015160D01*
X026211Y015650D01*
X026101Y015631D02*
X025441Y015631D01*
X025601Y015533D02*
X025911Y015533D01*
X025819Y015434D02*
X025699Y015434D01*
X025740Y015336D02*
X025762Y015336D01*
X025747Y014942D02*
X025755Y014942D01*
X025706Y014843D02*
X025806Y014843D01*
X025890Y014745D02*
X025619Y014745D01*
X025484Y014646D02*
X026046Y014646D01*
X026211Y014646D02*
X026271Y014646D01*
X026271Y014610D02*
X026281Y014610D01*
X026362Y014622D01*
X026440Y014648D01*
X026513Y014685D01*
X026579Y014733D01*
X026637Y014791D01*
X026685Y014857D01*
X026722Y014930D01*
X026748Y015008D01*
X026761Y015089D01*
X026761Y015100D01*
X026271Y015100D01*
X026271Y014610D01*
X026271Y014745D02*
X026211Y014745D01*
X026211Y014843D02*
X026271Y014843D01*
X026271Y014942D02*
X026211Y014942D01*
X026211Y015040D02*
X026271Y015040D01*
X026271Y015237D02*
X026211Y015237D01*
X026211Y015336D02*
X026271Y015336D01*
X026271Y015434D02*
X026211Y015434D01*
X026211Y015533D02*
X026271Y015533D01*
X026753Y015040D02*
X027145Y015040D01*
X027145Y014942D02*
X026726Y014942D01*
X026675Y014843D02*
X027145Y014843D01*
X027145Y014745D02*
X026591Y014745D01*
X026435Y014646D02*
X027145Y014646D01*
X027145Y014548D02*
X017010Y014548D01*
X017010Y014646D02*
X024997Y014646D01*
X024862Y014745D02*
X017010Y014745D01*
X017010Y014843D02*
X024775Y014843D01*
X024734Y014942D02*
X017010Y014942D01*
X017010Y015040D02*
X024701Y015040D01*
X024741Y015336D02*
X017010Y015336D01*
X017010Y015434D02*
X024782Y015434D01*
X024880Y015533D02*
X022583Y015533D01*
X022750Y015631D02*
X025040Y015631D01*
X027145Y015730D02*
X022848Y015730D01*
X022891Y015828D02*
X027145Y015828D01*
X027145Y015927D02*
X022932Y015927D01*
X022934Y016025D02*
X027145Y016025D01*
X027145Y016124D02*
X022934Y016124D01*
X022903Y016222D02*
X027145Y016222D01*
X027145Y016321D02*
X022862Y016321D01*
X022778Y016419D02*
X027145Y016419D01*
X027145Y016518D02*
X022650Y016518D01*
X022138Y016518D02*
X000320Y016518D01*
X000320Y016419D02*
X022010Y016419D01*
X021926Y016321D02*
X016579Y016321D01*
X016678Y016222D02*
X021885Y016222D01*
X021854Y016124D02*
X016776Y016124D01*
X016875Y016025D02*
X021854Y016025D01*
X021856Y015927D02*
X016973Y015927D01*
X017010Y015828D02*
X021897Y015828D01*
X021940Y015730D02*
X017010Y015730D01*
X017010Y015631D02*
X022038Y015631D01*
X022206Y015533D02*
X017010Y015533D01*
X016790Y015799D02*
X016470Y016119D01*
X013270Y016119D01*
X013270Y015639D01*
X013233Y015571D01*
X013733Y015801D02*
X013699Y015882D01*
X013682Y015899D01*
X013783Y015899D01*
X013766Y015882D01*
X013733Y015801D01*
X013721Y015828D02*
X013744Y015828D01*
X014233Y015571D02*
X014230Y015559D01*
X010390Y011719D01*
X010390Y009639D01*
X011030Y008999D01*
X011030Y007559D01*
X011190Y007399D01*
X011233Y007378D01*
X010850Y006918D02*
X010868Y006874D01*
X010989Y006753D01*
X011147Y006688D01*
X011318Y006688D01*
X011476Y006753D01*
X011597Y006874D01*
X011610Y006905D01*
X011610Y005090D01*
X011499Y004979D01*
X011476Y005002D01*
X011318Y005068D01*
X011147Y005068D01*
X010989Y005002D01*
X010868Y004881D01*
X010850Y004837D01*
X010850Y006918D01*
X010850Y006865D02*
X010878Y006865D01*
X010850Y006766D02*
X010976Y006766D01*
X010850Y006668D02*
X011610Y006668D01*
X011610Y006766D02*
X011489Y006766D01*
X011588Y006865D02*
X011610Y006865D01*
X011610Y006569D02*
X010850Y006569D01*
X010850Y006471D02*
X011610Y006471D01*
X011610Y006372D02*
X010850Y006372D01*
X010850Y006274D02*
X011610Y006274D01*
X011610Y006175D02*
X010850Y006175D01*
X010850Y006077D02*
X011610Y006077D01*
X011610Y005978D02*
X010850Y005978D01*
X010850Y005880D02*
X011610Y005880D01*
X011610Y005781D02*
X010850Y005781D01*
X010850Y005683D02*
X011610Y005683D01*
X011610Y005584D02*
X010850Y005584D01*
X010850Y005486D02*
X011610Y005486D01*
X011610Y005387D02*
X010850Y005387D01*
X010850Y005289D02*
X011610Y005289D01*
X011610Y005190D02*
X010850Y005190D01*
X010850Y005092D02*
X011610Y005092D01*
X011513Y004993D02*
X011485Y004993D01*
X011830Y004999D02*
X011830Y009159D01*
X012230Y009559D01*
X012233Y009571D01*
X012733Y009801D02*
X012699Y009882D01*
X012544Y010037D01*
X012342Y010121D01*
X012123Y010121D01*
X011921Y010037D01*
X011766Y009882D01*
X011733Y009801D01*
X011699Y009882D01*
X011544Y010037D01*
X011342Y010121D01*
X011140Y010121D01*
X011140Y010158D01*
X015281Y014299D01*
X015410Y014428D01*
X015410Y015049D01*
X015544Y015104D01*
X015699Y015259D01*
X015733Y015341D01*
X015766Y015259D01*
X015921Y015104D01*
X016123Y015021D01*
X016342Y015021D01*
X016544Y015104D01*
X016570Y015130D01*
X016570Y010011D01*
X016544Y010037D01*
X016342Y010121D01*
X016123Y010121D01*
X015921Y010037D01*
X015766Y009882D01*
X015733Y009801D01*
X015699Y009882D01*
X015544Y010037D01*
X015342Y010121D01*
X015123Y010121D01*
X014921Y010037D01*
X014766Y009882D01*
X014733Y009801D01*
X014699Y009882D01*
X014544Y010037D01*
X014342Y010121D01*
X014123Y010121D01*
X013921Y010037D01*
X013766Y009882D01*
X013733Y009801D01*
X013699Y009882D01*
X013544Y010037D01*
X013342Y010121D01*
X013123Y010121D01*
X012921Y010037D01*
X012766Y009882D01*
X012733Y009801D01*
X012725Y009820D02*
X012741Y009820D01*
X012802Y009918D02*
X012663Y009918D01*
X012564Y010017D02*
X012901Y010017D01*
X013110Y010115D02*
X012355Y010115D01*
X012110Y010115D02*
X011355Y010115D01*
X011196Y010214D02*
X016570Y010214D01*
X016570Y010312D02*
X011295Y010312D01*
X011393Y010411D02*
X016570Y010411D01*
X016570Y010509D02*
X011492Y010509D01*
X011590Y010608D02*
X016570Y010608D01*
X016570Y010706D02*
X011689Y010706D01*
X011787Y010805D02*
X016570Y010805D01*
X016570Y010903D02*
X011886Y010903D01*
X011984Y011002D02*
X016570Y011002D01*
X016570Y011100D02*
X012083Y011100D01*
X012181Y011199D02*
X016570Y011199D01*
X016570Y011297D02*
X012280Y011297D01*
X012378Y011396D02*
X016570Y011396D01*
X016570Y011494D02*
X012477Y011494D01*
X012575Y011593D02*
X016570Y011593D01*
X016570Y011691D02*
X012674Y011691D01*
X012772Y011790D02*
X016570Y011790D01*
X016570Y011888D02*
X012871Y011888D01*
X012969Y011987D02*
X016570Y011987D01*
X016570Y012085D02*
X013068Y012085D01*
X013166Y012184D02*
X016570Y012184D01*
X016570Y012282D02*
X013265Y012282D01*
X013363Y012381D02*
X016570Y012381D01*
X016570Y012479D02*
X013462Y012479D01*
X013560Y012578D02*
X016570Y012578D01*
X016570Y012676D02*
X013659Y012676D01*
X013757Y012775D02*
X016570Y012775D01*
X016570Y012873D02*
X013856Y012873D01*
X013954Y012972D02*
X016570Y012972D01*
X016570Y013070D02*
X014053Y013070D01*
X014151Y013169D02*
X016570Y013169D01*
X016570Y013267D02*
X014250Y013267D01*
X014348Y013366D02*
X016570Y013366D01*
X016570Y013464D02*
X014447Y013464D01*
X014545Y013563D02*
X016570Y013563D01*
X016570Y013661D02*
X014644Y013661D01*
X014742Y013760D02*
X016570Y013760D01*
X016570Y013858D02*
X014841Y013858D01*
X014939Y013957D02*
X016570Y013957D01*
X016570Y014055D02*
X015038Y014055D01*
X015136Y014154D02*
X016570Y014154D01*
X016570Y014252D02*
X015235Y014252D01*
X015333Y014351D02*
X016570Y014351D01*
X016570Y014449D02*
X015410Y014449D01*
X015410Y014548D02*
X016570Y014548D01*
X016570Y014646D02*
X015410Y014646D01*
X015410Y014745D02*
X016570Y014745D01*
X016570Y014843D02*
X015410Y014843D01*
X015410Y014942D02*
X016570Y014942D01*
X016570Y015040D02*
X016389Y015040D01*
X016076Y015040D02*
X015410Y015040D01*
X015579Y015139D02*
X015887Y015139D01*
X015788Y015237D02*
X015677Y015237D01*
X015731Y015336D02*
X015735Y015336D01*
X015233Y015571D02*
X015190Y015559D01*
X015190Y014519D01*
X010790Y010119D01*
X010829Y010469D02*
X010720Y010469D01*
X010610Y010423D01*
X010610Y011628D01*
X014038Y015056D01*
X014123Y015021D01*
X014342Y015021D01*
X014544Y015104D01*
X014699Y015259D01*
X014733Y015341D01*
X014766Y015259D01*
X014921Y015104D01*
X014970Y015084D01*
X014970Y014610D01*
X010829Y010469D01*
X010869Y010509D02*
X010610Y010509D01*
X010610Y010608D02*
X010968Y010608D01*
X011066Y010706D02*
X010610Y010706D01*
X010610Y010805D02*
X011165Y010805D01*
X011263Y010903D02*
X010610Y010903D01*
X010610Y011002D02*
X011362Y011002D01*
X011460Y011100D02*
X010610Y011100D01*
X010610Y011199D02*
X011559Y011199D01*
X011657Y011297D02*
X010610Y011297D01*
X010610Y011396D02*
X011756Y011396D01*
X011854Y011494D02*
X010610Y011494D01*
X010610Y011593D02*
X011953Y011593D01*
X012051Y011691D02*
X010674Y011691D01*
X010772Y011790D02*
X012150Y011790D01*
X012248Y011888D02*
X010871Y011888D01*
X010969Y011987D02*
X012347Y011987D01*
X012445Y012085D02*
X011068Y012085D01*
X011166Y012184D02*
X012544Y012184D01*
X012642Y012282D02*
X011265Y012282D01*
X011363Y012381D02*
X012741Y012381D01*
X012839Y012479D02*
X011462Y012479D01*
X011560Y012578D02*
X012938Y012578D01*
X013036Y012676D02*
X011659Y012676D01*
X011757Y012775D02*
X013135Y012775D01*
X013233Y012873D02*
X011856Y012873D01*
X011954Y012972D02*
X013332Y012972D01*
X013430Y013070D02*
X012053Y013070D01*
X012151Y013169D02*
X013529Y013169D01*
X013627Y013267D02*
X012250Y013267D01*
X012348Y013366D02*
X013726Y013366D01*
X013824Y013464D02*
X012447Y013464D01*
X012545Y013563D02*
X013923Y013563D01*
X014021Y013661D02*
X012644Y013661D01*
X012742Y013760D02*
X014120Y013760D01*
X014218Y013858D02*
X012841Y013858D01*
X012939Y013957D02*
X014317Y013957D01*
X014415Y014055D02*
X013038Y014055D01*
X013136Y014154D02*
X014514Y014154D01*
X014612Y014252D02*
X013235Y014252D01*
X013333Y014351D02*
X014711Y014351D01*
X014809Y014449D02*
X013432Y014449D01*
X013530Y014548D02*
X014908Y014548D01*
X014970Y014646D02*
X013629Y014646D01*
X013727Y014745D02*
X014970Y014745D01*
X014970Y014843D02*
X013826Y014843D01*
X013924Y014942D02*
X014970Y014942D01*
X014970Y015040D02*
X014389Y015040D01*
X014579Y015139D02*
X014887Y015139D01*
X014788Y015237D02*
X014677Y015237D01*
X014731Y015336D02*
X014735Y015336D01*
X014076Y015040D02*
X014023Y015040D01*
X013408Y015048D02*
X010370Y012010D01*
X010370Y014428D01*
X011010Y015068D01*
X011123Y015021D01*
X011342Y015021D01*
X011544Y015104D01*
X011699Y015259D01*
X011733Y015341D01*
X011766Y015259D01*
X011921Y015104D01*
X012123Y015021D01*
X012342Y015021D01*
X012544Y015104D01*
X012699Y015259D01*
X012733Y015341D01*
X012766Y015259D01*
X012921Y015104D01*
X013123Y015021D01*
X013342Y015021D01*
X013408Y015048D01*
X013400Y015040D02*
X013389Y015040D01*
X013302Y014942D02*
X010884Y014942D01*
X010983Y015040D02*
X011076Y015040D01*
X011389Y015040D02*
X012076Y015040D01*
X011887Y015139D02*
X011579Y015139D01*
X011677Y015237D02*
X011788Y015237D01*
X011735Y015336D02*
X011731Y015336D01*
X011233Y015571D02*
X011190Y015559D01*
X010150Y014519D01*
X010150Y008359D01*
X010390Y008614D02*
X010370Y008634D01*
X010370Y009348D01*
X010810Y008908D01*
X010810Y008663D01*
X010700Y008709D01*
X010560Y008709D01*
X010432Y008655D01*
X010390Y008614D01*
X010370Y008638D02*
X010414Y008638D01*
X010370Y008736D02*
X010810Y008736D01*
X010810Y008835D02*
X010370Y008835D01*
X010370Y008933D02*
X010784Y008933D01*
X010686Y009032D02*
X010370Y009032D01*
X010370Y009130D02*
X010587Y009130D01*
X010489Y009229D02*
X010370Y009229D01*
X010370Y009327D02*
X010390Y009327D01*
X010683Y009657D02*
X010610Y009730D01*
X010610Y009814D01*
X010720Y009769D01*
X010683Y009680D01*
X010683Y009657D01*
X010700Y009721D02*
X010619Y009721D01*
X011564Y010017D02*
X011901Y010017D01*
X011802Y009918D02*
X011663Y009918D01*
X011725Y009820D02*
X011741Y009820D01*
X012669Y009229D02*
X012797Y009229D01*
X012738Y009327D02*
X012727Y009327D01*
X012570Y009130D02*
X012895Y009130D01*
X012870Y008933D02*
X015450Y008933D01*
X015450Y008835D02*
X012944Y008835D01*
X012980Y008736D02*
X015450Y008736D01*
X015450Y008638D02*
X012980Y008638D01*
X012951Y008539D02*
X015450Y008539D01*
X015450Y008441D02*
X012887Y008441D01*
X012850Y008342D02*
X015450Y008342D01*
X015450Y008244D02*
X012850Y008244D01*
X012850Y008145D02*
X015450Y008145D01*
X015450Y008047D02*
X015369Y008047D01*
X015096Y008047D02*
X014369Y008047D01*
X014530Y007948D02*
X014935Y007948D01*
X014855Y007850D02*
X014610Y007850D01*
X014651Y007751D02*
X014814Y007751D01*
X014803Y007653D02*
X014663Y007653D01*
X014663Y007554D02*
X014803Y007554D01*
X014803Y007456D02*
X014663Y007456D01*
X014663Y007357D02*
X014803Y007357D01*
X014803Y007259D02*
X014663Y007259D01*
X014663Y007160D02*
X014803Y007160D01*
X014803Y007062D02*
X014663Y007062D01*
X014634Y006963D02*
X014831Y006963D01*
X014878Y006865D02*
X014588Y006865D01*
X014489Y006766D02*
X014976Y006766D01*
X015450Y006668D02*
X014450Y006668D01*
X014450Y006569D02*
X015450Y006569D01*
X015450Y006471D02*
X014450Y006471D01*
X014450Y006372D02*
X015450Y006372D01*
X015450Y006274D02*
X014450Y006274D01*
X014450Y006175D02*
X015450Y006175D01*
X015450Y006077D02*
X014450Y006077D01*
X014450Y005978D02*
X015450Y005978D01*
X015450Y005880D02*
X014450Y005880D01*
X014450Y005781D02*
X015450Y005781D01*
X015450Y005683D02*
X014450Y005683D01*
X014450Y005584D02*
X015450Y005584D01*
X015450Y005486D02*
X014450Y005486D01*
X014450Y005387D02*
X015450Y005387D01*
X015450Y005289D02*
X014431Y005289D01*
X014333Y005190D02*
X015450Y005190D01*
X015480Y005092D02*
X014234Y005092D01*
X014263Y005048D02*
X014263Y004408D01*
X014203Y004408D01*
X014203Y004348D01*
X014263Y004348D01*
X014263Y004408D01*
X014643Y004408D01*
X014643Y004670D01*
X014633Y004734D01*
X014613Y004795D01*
X014583Y004853D01*
X014545Y004905D01*
X014500Y004950D01*
X014448Y004988D01*
X014390Y005018D01*
X014329Y005038D01*
X014265Y005048D01*
X014263Y005048D01*
X014263Y004993D02*
X014203Y004993D01*
X014203Y004895D02*
X014263Y004895D01*
X014263Y004796D02*
X014203Y004796D01*
X014203Y004698D02*
X014263Y004698D01*
X014263Y004599D02*
X014203Y004599D01*
X014203Y004501D02*
X014263Y004501D01*
X014310Y004439D02*
X014233Y004378D01*
X014263Y004402D02*
X014803Y004402D01*
X014803Y004304D02*
X014643Y004304D01*
X014643Y004348D02*
X014263Y004348D01*
X014263Y003708D01*
X014265Y003708D01*
X014329Y003718D01*
X014390Y003738D01*
X014448Y003767D01*
X014500Y003805D01*
X014545Y003851D01*
X014583Y003903D01*
X014613Y003960D01*
X014633Y004022D01*
X014643Y004085D01*
X014643Y004348D01*
X014643Y004205D02*
X014803Y004205D01*
X014803Y004107D02*
X014643Y004107D01*
X014628Y004008D02*
X014813Y004008D01*
X014853Y003910D02*
X014587Y003910D01*
X014506Y003811D02*
X014931Y003811D01*
X015087Y003713D02*
X014296Y003713D01*
X014263Y003713D02*
X014203Y003713D01*
X014203Y003708D02*
X014203Y004348D01*
X013823Y004348D01*
X013823Y004085D01*
X013833Y004022D01*
X013853Y003960D01*
X013882Y003903D01*
X013920Y003851D01*
X013966Y003805D01*
X014018Y003767D01*
X014075Y003738D01*
X014137Y003718D01*
X014200Y003708D01*
X014203Y003708D01*
X014169Y003713D02*
X013378Y003713D01*
X013534Y003811D02*
X013959Y003811D01*
X013879Y003910D02*
X013612Y003910D01*
X013653Y004008D02*
X013837Y004008D01*
X013823Y004107D02*
X013663Y004107D01*
X013663Y004205D02*
X013823Y004205D01*
X013823Y004304D02*
X013663Y004304D01*
X013663Y004402D02*
X014203Y004402D01*
X014203Y004304D02*
X014263Y004304D01*
X014263Y004205D02*
X014203Y004205D01*
X014203Y004107D02*
X014263Y004107D01*
X014263Y004008D02*
X014203Y004008D01*
X014203Y003910D02*
X014263Y003910D01*
X014263Y003811D02*
X014203Y003811D01*
X013087Y003713D02*
X012378Y003713D01*
X012534Y003811D02*
X012931Y003811D01*
X012853Y003910D02*
X012612Y003910D01*
X012653Y004008D02*
X012813Y004008D01*
X012803Y004107D02*
X012663Y004107D01*
X012663Y004205D02*
X012803Y004205D01*
X012803Y004304D02*
X012663Y004304D01*
X012663Y004402D02*
X012803Y004402D01*
X012803Y004501D02*
X012683Y004501D01*
X012782Y004599D02*
X012803Y004599D01*
X012630Y004759D02*
X012630Y008679D01*
X012390Y008933D02*
X012050Y008933D01*
X012050Y008835D02*
X012316Y008835D01*
X012280Y008736D02*
X012050Y008736D01*
X012050Y008638D02*
X012280Y008638D01*
X012309Y008539D02*
X012050Y008539D01*
X012050Y008441D02*
X012373Y008441D01*
X012410Y008342D02*
X012050Y008342D01*
X012050Y008244D02*
X012410Y008244D01*
X012410Y008145D02*
X012050Y008145D01*
X012050Y008047D02*
X012096Y008047D01*
X012369Y008047D02*
X012410Y008047D01*
X012850Y008047D02*
X013194Y008047D01*
X013203Y008047D02*
X013263Y008047D01*
X013263Y008048D02*
X013263Y007408D01*
X013643Y007408D01*
X013643Y007670D01*
X013633Y007734D01*
X013613Y007795D01*
X013583Y007853D01*
X013545Y007905D01*
X013500Y007950D01*
X013448Y007988D01*
X013390Y008018D01*
X013329Y008038D01*
X013265Y008048D01*
X013263Y008048D01*
X013272Y008047D02*
X014096Y008047D01*
X013910Y008039D02*
X014630Y008039D01*
X014630Y004759D01*
X014310Y004439D01*
X014643Y004501D02*
X014803Y004501D01*
X014803Y004599D02*
X014643Y004599D01*
X014638Y004698D02*
X014803Y004698D01*
X014833Y004796D02*
X014612Y004796D01*
X014553Y004895D02*
X014882Y004895D01*
X014980Y004993D02*
X014438Y004993D01*
X013809Y005289D02*
X012850Y005289D01*
X012850Y005387D02*
X013907Y005387D01*
X014006Y005486D02*
X012850Y005486D01*
X012850Y005584D02*
X014010Y005584D01*
X014010Y005683D02*
X012850Y005683D01*
X012850Y005781D02*
X014010Y005781D01*
X014010Y005880D02*
X012850Y005880D01*
X012850Y005978D02*
X014010Y005978D01*
X014010Y006077D02*
X012850Y006077D01*
X012850Y006175D02*
X014010Y006175D01*
X014010Y006274D02*
X012850Y006274D01*
X012850Y006372D02*
X014010Y006372D01*
X014010Y006471D02*
X012850Y006471D01*
X012850Y006569D02*
X014010Y006569D01*
X014010Y006668D02*
X012850Y006668D01*
X012850Y006766D02*
X013020Y006766D01*
X012910Y006865D02*
X012850Y006865D01*
X012850Y006963D02*
X012852Y006963D01*
X013203Y006963D02*
X013263Y006963D01*
X013263Y006865D02*
X013203Y006865D01*
X013203Y006766D02*
X013263Y006766D01*
X013263Y006708D02*
X013265Y006708D01*
X013329Y006718D01*
X013390Y006738D01*
X013448Y006767D01*
X013500Y006805D01*
X013545Y006851D01*
X013583Y006903D01*
X013613Y006960D01*
X013633Y007022D01*
X013643Y007085D01*
X013643Y007348D01*
X013263Y007348D01*
X013263Y006708D01*
X013446Y006766D02*
X013976Y006766D01*
X013878Y006865D02*
X013556Y006865D01*
X013614Y006963D02*
X013831Y006963D01*
X013803Y007062D02*
X013639Y007062D01*
X013643Y007160D02*
X013803Y007160D01*
X013803Y007259D02*
X013643Y007259D01*
X013803Y007357D02*
X013263Y007357D01*
X013233Y007378D02*
X013270Y007399D01*
X013910Y008039D01*
X013935Y007948D02*
X013502Y007948D01*
X013585Y007850D02*
X013855Y007850D01*
X013814Y007751D02*
X013627Y007751D01*
X013643Y007653D02*
X013803Y007653D01*
X013803Y007554D02*
X013643Y007554D01*
X013643Y007456D02*
X013803Y007456D01*
X014233Y007378D02*
X014230Y007319D01*
X014230Y005399D01*
X013270Y004439D01*
X013233Y004378D01*
X013663Y004501D02*
X013823Y004501D01*
X013823Y004599D02*
X013742Y004599D01*
X013513Y004993D02*
X013485Y004993D01*
X013612Y005092D02*
X012850Y005092D01*
X012850Y005190D02*
X013710Y005190D01*
X012980Y004993D02*
X012850Y004993D01*
X012850Y004895D02*
X012882Y004895D01*
X012630Y004759D02*
X012310Y004439D01*
X012233Y004378D01*
X011803Y004402D02*
X011663Y004402D01*
X011663Y004304D02*
X011803Y004304D01*
X011803Y004205D02*
X011663Y004205D01*
X011663Y004107D02*
X011803Y004107D01*
X011813Y004008D02*
X011653Y004008D01*
X011612Y003910D02*
X011853Y003910D01*
X011931Y003811D02*
X011534Y003811D01*
X011378Y003713D02*
X012087Y003713D01*
X011087Y003713D02*
X010378Y003713D01*
X010534Y003811D02*
X010931Y003811D01*
X010853Y003910D02*
X010612Y003910D01*
X010653Y004008D02*
X010813Y004008D01*
X010803Y004107D02*
X010663Y004107D01*
X010663Y004205D02*
X010803Y004205D01*
X010803Y004304D02*
X010663Y004304D01*
X010663Y004402D02*
X010803Y004402D01*
X010803Y004501D02*
X010683Y004501D01*
X010782Y004599D02*
X010803Y004599D01*
X010630Y004759D02*
X010630Y008359D01*
X010390Y008104D02*
X010410Y008084D01*
X010410Y008030D01*
X010340Y008059D01*
X010348Y008062D01*
X010390Y008104D01*
X010369Y008047D02*
X010410Y008047D01*
X010042Y008024D02*
X009989Y008002D01*
X009970Y007983D01*
X009970Y008054D01*
X010042Y008024D01*
X009989Y008047D02*
X009970Y008047D01*
X009530Y008047D02*
X009369Y008047D01*
X009318Y008068D02*
X009147Y008068D01*
X009010Y008011D01*
X009010Y013788D01*
X010683Y015460D01*
X010712Y015391D01*
X009930Y014610D01*
X009930Y014428D01*
X009930Y014023D01*
X009820Y014069D01*
X009680Y014069D01*
X009552Y014015D01*
X009453Y013917D01*
X009400Y013788D01*
X009400Y013649D01*
X009453Y013520D01*
X009530Y013444D01*
X009530Y007948D01*
X009476Y008002D01*
X009318Y008068D01*
X009096Y008047D02*
X009010Y008047D01*
X009010Y008145D02*
X009530Y008145D01*
X009530Y008244D02*
X009010Y008244D01*
X009010Y008342D02*
X009530Y008342D01*
X009530Y008441D02*
X009010Y008441D01*
X009010Y008539D02*
X009530Y008539D01*
X009530Y008638D02*
X009010Y008638D01*
X009010Y008736D02*
X009530Y008736D01*
X009530Y008835D02*
X009010Y008835D01*
X009010Y008933D02*
X009530Y008933D01*
X009530Y009032D02*
X009010Y009032D01*
X009010Y009130D02*
X009530Y009130D01*
X009530Y009229D02*
X009010Y009229D01*
X009010Y009327D02*
X009530Y009327D01*
X009530Y009426D02*
X009010Y009426D01*
X009010Y009524D02*
X009530Y009524D01*
X009530Y009623D02*
X009010Y009623D01*
X009010Y009721D02*
X009530Y009721D01*
X009530Y009820D02*
X009010Y009820D01*
X009010Y009918D02*
X009530Y009918D01*
X009530Y010017D02*
X009010Y010017D01*
X009010Y010115D02*
X009530Y010115D01*
X009530Y010214D02*
X009010Y010214D01*
X009010Y010312D02*
X009530Y010312D01*
X009530Y010411D02*
X009010Y010411D01*
X009010Y010509D02*
X009530Y010509D01*
X009530Y010608D02*
X009010Y010608D01*
X009010Y010706D02*
X009530Y010706D01*
X009530Y010805D02*
X009010Y010805D01*
X009010Y010903D02*
X009530Y010903D01*
X009530Y011002D02*
X009010Y011002D01*
X009010Y011100D02*
X009530Y011100D01*
X009530Y011199D02*
X009010Y011199D01*
X009010Y011297D02*
X009530Y011297D01*
X009530Y011396D02*
X009010Y011396D01*
X009010Y011494D02*
X009530Y011494D01*
X009530Y011593D02*
X009010Y011593D01*
X009010Y011691D02*
X009530Y011691D01*
X009530Y011790D02*
X009010Y011790D01*
X009010Y011888D02*
X009530Y011888D01*
X009530Y011987D02*
X009010Y011987D01*
X009010Y012085D02*
X009530Y012085D01*
X009530Y012184D02*
X009010Y012184D01*
X009010Y012282D02*
X009530Y012282D01*
X009530Y012381D02*
X009010Y012381D01*
X009010Y012479D02*
X009530Y012479D01*
X009530Y012578D02*
X009010Y012578D01*
X009010Y012676D02*
X009530Y012676D01*
X009530Y012775D02*
X009010Y012775D01*
X009010Y012873D02*
X009530Y012873D01*
X009530Y012972D02*
X009010Y012972D01*
X009010Y013070D02*
X009530Y013070D01*
X009530Y013169D02*
X009010Y013169D01*
X009010Y013267D02*
X009530Y013267D01*
X009530Y013366D02*
X009010Y013366D01*
X009010Y013464D02*
X009509Y013464D01*
X009436Y013563D02*
X009010Y013563D01*
X009010Y013661D02*
X009400Y013661D01*
X009400Y013760D02*
X009010Y013760D01*
X009081Y013858D02*
X009429Y013858D01*
X009493Y013957D02*
X009179Y013957D01*
X009278Y014055D02*
X009648Y014055D01*
X009852Y014055D02*
X009930Y014055D01*
X009930Y014154D02*
X009376Y014154D01*
X009475Y014252D02*
X009930Y014252D01*
X009930Y014351D02*
X009573Y014351D01*
X009672Y014449D02*
X009930Y014449D01*
X009930Y014548D02*
X009770Y014548D01*
X009869Y014646D02*
X009966Y014646D01*
X009967Y014745D02*
X010065Y014745D01*
X010066Y014843D02*
X010163Y014843D01*
X010164Y014942D02*
X010262Y014942D01*
X010263Y015040D02*
X010360Y015040D01*
X010361Y015139D02*
X010459Y015139D01*
X010460Y015237D02*
X010557Y015237D01*
X010558Y015336D02*
X010656Y015336D01*
X010657Y015434D02*
X010694Y015434D01*
X010330Y015730D02*
X000320Y015730D01*
X000320Y015828D02*
X010428Y015828D01*
X010527Y015927D02*
X000320Y015927D01*
X000320Y016025D02*
X010625Y016025D01*
X010724Y016124D02*
X000320Y016124D01*
X000320Y016222D02*
X010822Y016222D01*
X010921Y016321D02*
X000320Y016321D01*
X000320Y015631D02*
X010231Y015631D01*
X010133Y015533D02*
X000320Y015533D01*
X000320Y015434D02*
X010034Y015434D01*
X009936Y015336D02*
X004594Y015336D01*
X004689Y015296D02*
X004490Y015379D01*
X004275Y015379D01*
X004077Y015296D01*
X003925Y015144D01*
X003889Y015059D01*
X002316Y015059D01*
X002281Y015144D01*
X002129Y015296D01*
X001930Y015379D01*
X001715Y015379D01*
X001517Y015296D01*
X001365Y015144D01*
X001283Y014946D01*
X001283Y014731D01*
X001365Y014533D01*
X001517Y014381D01*
X001715Y014299D01*
X001930Y014299D01*
X002129Y014381D01*
X002281Y014533D01*
X002316Y014619D01*
X003889Y014619D01*
X003925Y014533D01*
X004077Y014381D01*
X004275Y014299D01*
X004490Y014299D01*
X004689Y014381D01*
X004841Y014533D01*
X004923Y014731D01*
X004923Y014946D01*
X004841Y015144D01*
X004689Y015296D01*
X004748Y015237D02*
X009837Y015237D01*
X009739Y015139D02*
X004843Y015139D01*
X004884Y015040D02*
X009640Y015040D01*
X009542Y014942D02*
X004923Y014942D01*
X004923Y014843D02*
X009443Y014843D01*
X009345Y014745D02*
X004923Y014745D01*
X004888Y014646D02*
X009246Y014646D01*
X009148Y014548D02*
X004847Y014548D01*
X004757Y014449D02*
X009049Y014449D01*
X008951Y014351D02*
X004616Y014351D01*
X004150Y014351D02*
X002056Y014351D01*
X002197Y014449D02*
X004008Y014449D01*
X003919Y014548D02*
X002287Y014548D01*
X001830Y014839D02*
X001823Y014839D01*
X001830Y014839D02*
X004310Y014839D01*
X004383Y014839D01*
X004018Y015237D02*
X002188Y015237D01*
X002283Y015139D02*
X003923Y015139D01*
X004172Y015336D02*
X002034Y015336D01*
X001612Y015336D02*
X000320Y015336D01*
X000320Y015237D02*
X001458Y015237D01*
X001363Y015139D02*
X000320Y015139D01*
X000320Y015040D02*
X001322Y015040D01*
X001283Y014942D02*
X000320Y014942D01*
X000320Y014843D02*
X001283Y014843D01*
X001283Y014745D02*
X000320Y014745D01*
X000320Y014646D02*
X001318Y014646D01*
X001359Y014548D02*
X000320Y014548D01*
X000320Y014449D02*
X001448Y014449D01*
X001590Y014351D02*
X000320Y014351D01*
X000320Y014252D02*
X008852Y014252D01*
X008754Y014154D02*
X000320Y014154D01*
X000320Y014055D02*
X008655Y014055D01*
X008570Y013957D02*
X000320Y013957D01*
X000320Y013858D02*
X008570Y013858D01*
X008570Y013760D02*
X000320Y013760D01*
X000320Y013661D02*
X008570Y013661D01*
X008570Y013563D02*
X004514Y013563D01*
X004505Y013566D02*
X004433Y013577D01*
X004433Y013109D01*
X004333Y013109D01*
X004333Y013577D01*
X004261Y013566D01*
X004183Y013540D01*
X004110Y013503D01*
X004044Y013455D01*
X003986Y013397D01*
X003938Y013331D01*
X003901Y013258D01*
X003876Y013180D01*
X003864Y013109D01*
X004333Y013109D01*
X004333Y013009D01*
X003864Y013009D01*
X003876Y012937D01*
X003901Y012859D01*
X003938Y012786D01*
X003986Y012720D01*
X004044Y012662D01*
X004110Y012614D01*
X004183Y012577D01*
X004261Y012551D01*
X004333Y012540D01*
X004333Y013009D01*
X004433Y013009D01*
X004433Y013109D01*
X004901Y013109D01*
X004890Y013180D01*
X004865Y013258D01*
X004827Y013331D01*
X004779Y013397D01*
X004722Y013455D01*
X004655Y013503D01*
X004582Y013540D01*
X004505Y013566D01*
X004433Y013563D02*
X004333Y013563D01*
X004251Y013563D02*
X001954Y013563D01*
X001945Y013566D02*
X001873Y013577D01*
X001873Y013109D01*
X001773Y013109D01*
X001773Y013577D01*
X001701Y013566D01*
X001623Y013540D01*
X001550Y013503D01*
X001484Y013455D01*
X001426Y013397D01*
X001378Y013331D01*
X001341Y013258D01*
X001316Y013180D01*
X001304Y013109D01*
X001773Y013109D01*
X001773Y013009D01*
X001304Y013009D01*
X001316Y012937D01*
X001341Y012859D01*
X001378Y012786D01*
X001426Y012720D01*
X001484Y012662D01*
X001550Y012614D01*
X001623Y012577D01*
X001701Y012551D01*
X001773Y012540D01*
X001773Y013009D01*
X001873Y013009D01*
X001873Y013109D01*
X002341Y013109D01*
X002330Y013180D01*
X002305Y013258D01*
X002267Y013331D01*
X002219Y013397D01*
X002162Y013455D01*
X002095Y013503D01*
X002022Y013540D01*
X001945Y013566D01*
X001873Y013563D02*
X001773Y013563D01*
X001691Y013563D02*
X000320Y013563D01*
X000320Y013464D02*
X001496Y013464D01*
X001403Y013366D02*
X000320Y013366D01*
X000320Y013267D02*
X001345Y013267D01*
X001314Y013169D02*
X000320Y013169D01*
X000320Y013070D02*
X001773Y013070D01*
X001823Y013059D02*
X001750Y012999D01*
X001270Y012519D01*
X001270Y009159D01*
X001270Y006919D01*
X001750Y006439D01*
X001823Y006366D01*
X002150Y006359D01*
X002150Y003879D01*
X003030Y003879D01*
X003103Y003893D01*
X003122Y003910D02*
X006853Y003910D01*
X006813Y004008D02*
X003565Y004008D01*
X003527Y004107D02*
X006803Y004107D01*
X006803Y004205D02*
X003463Y004205D01*
X003344Y004304D02*
X006803Y004304D01*
X006803Y004402D02*
X003210Y004402D01*
X003201Y004398D02*
X003383Y004474D01*
X003522Y004613D01*
X003598Y004795D01*
X003598Y004992D01*
X003522Y005174D01*
X003383Y005313D01*
X003201Y005388D01*
X003004Y005388D01*
X002822Y005313D01*
X002683Y005174D01*
X002608Y004992D01*
X002608Y004795D01*
X002683Y004613D01*
X002822Y004474D01*
X003004Y004398D01*
X003201Y004398D01*
X003084Y004368D02*
X003065Y004368D01*
X002992Y004357D01*
X002920Y004334D01*
X002854Y004300D01*
X002793Y004256D01*
X002740Y004203D01*
X002696Y004142D01*
X002663Y004076D01*
X002639Y004005D01*
X002628Y003931D01*
X002628Y003912D01*
X003084Y003912D01*
X003084Y004368D01*
X003084Y004304D02*
X003122Y004304D01*
X003122Y004205D02*
X003084Y004205D01*
X003084Y004107D02*
X003122Y004107D01*
X003122Y004008D02*
X003084Y004008D01*
X003084Y003910D02*
X001184Y003910D01*
X001190Y003879D02*
X001134Y003909D01*
X001190Y003879D02*
X002150Y003879D01*
X002015Y003811D02*
X002635Y003811D01*
X002662Y003713D02*
X001987Y003713D01*
X001933Y003614D02*
X002719Y003614D01*
X002815Y003516D02*
X001846Y003516D01*
X002015Y004008D02*
X002641Y004008D01*
X002678Y004107D02*
X001987Y004107D01*
X001932Y004205D02*
X002743Y004205D01*
X002862Y004304D02*
X001845Y004304D01*
X001691Y004402D02*
X002995Y004402D01*
X002796Y004501D02*
X001859Y004501D01*
X001958Y004599D02*
X002697Y004599D01*
X002648Y004698D02*
X002001Y004698D01*
X002042Y004796D02*
X002608Y004796D01*
X002608Y004895D02*
X002044Y004895D01*
X002044Y004993D02*
X002608Y004993D01*
X002649Y005092D02*
X002013Y005092D01*
X001972Y005190D02*
X002699Y005190D01*
X002798Y005289D02*
X001888Y005289D01*
X001761Y005387D02*
X003001Y005387D01*
X003204Y005387D02*
X007907Y005387D01*
X007809Y005289D02*
X003408Y005289D01*
X003506Y005190D02*
X007710Y005190D01*
X007612Y005092D02*
X003556Y005092D01*
X003597Y004993D02*
X006980Y004993D01*
X006882Y004895D02*
X003598Y004895D01*
X003598Y004796D02*
X006833Y004796D01*
X006803Y004698D02*
X003557Y004698D01*
X003508Y004599D02*
X006803Y004599D01*
X006803Y004501D02*
X003410Y004501D01*
X003571Y003811D02*
X006931Y003811D01*
X007087Y003713D02*
X003543Y003713D01*
X003487Y003614D02*
X021410Y003614D01*
X021523Y003516D02*
X003391Y003516D01*
X000587Y004398D02*
X000565Y004391D01*
X000492Y004354D01*
X000425Y004306D01*
X000368Y004248D01*
X000320Y004182D01*
X000320Y004590D01*
X000458Y004451D01*
X000587Y004398D01*
X000577Y004402D02*
X000320Y004402D01*
X000320Y004304D02*
X000423Y004304D01*
X000337Y004205D02*
X000320Y004205D01*
X000320Y004501D02*
X000409Y004501D01*
X000380Y005289D02*
X000320Y005289D01*
X000320Y005387D02*
X000507Y005387D01*
X000320Y005486D02*
X008006Y005486D01*
X008040Y005584D02*
X000320Y005584D01*
X000320Y005683D02*
X008063Y005683D01*
X008118Y005781D02*
X000320Y005781D01*
X000320Y005880D02*
X001636Y005880D01*
X001623Y005884D02*
X001701Y005858D01*
X001773Y005847D01*
X001773Y006316D01*
X001304Y006316D01*
X001316Y006244D01*
X001341Y006166D01*
X001378Y006093D01*
X001426Y006027D01*
X001484Y005969D01*
X001550Y005921D01*
X001623Y005884D01*
X001773Y005880D02*
X001873Y005880D01*
X001873Y005847D02*
X001945Y005858D01*
X002022Y005884D01*
X002095Y005921D01*
X002162Y005969D01*
X002219Y006027D01*
X002267Y006093D01*
X002305Y006166D01*
X002330Y006244D01*
X002341Y006316D01*
X001873Y006316D01*
X001873Y006416D01*
X001773Y006416D01*
X001773Y006884D01*
X001701Y006873D01*
X001623Y006848D01*
X001550Y006810D01*
X001484Y006762D01*
X001426Y006704D01*
X001378Y006638D01*
X001341Y006565D01*
X001316Y006487D01*
X001304Y006416D01*
X001773Y006416D01*
X001773Y006316D01*
X001873Y006316D01*
X001873Y005847D01*
X001873Y005978D02*
X001773Y005978D01*
X001773Y006077D02*
X001873Y006077D01*
X001873Y006175D02*
X001773Y006175D01*
X001773Y006274D02*
X001873Y006274D01*
X001830Y006359D02*
X001823Y006366D01*
X001830Y006359D02*
X002150Y006359D01*
X004310Y006359D01*
X004383Y006366D01*
X004433Y006372D02*
X008570Y006372D01*
X008570Y006274D02*
X004895Y006274D01*
X004890Y006244D02*
X004901Y006316D01*
X004433Y006316D01*
X004433Y006416D01*
X004333Y006416D01*
X004333Y006884D01*
X004261Y006873D01*
X004183Y006848D01*
X004110Y006810D01*
X004044Y006762D01*
X003986Y006704D01*
X003938Y006638D01*
X003901Y006565D01*
X003876Y006487D01*
X003864Y006416D01*
X004333Y006416D01*
X004333Y006316D01*
X003864Y006316D01*
X003876Y006244D01*
X003901Y006166D01*
X003938Y006093D01*
X003986Y006027D01*
X004044Y005969D01*
X004110Y005921D01*
X004183Y005884D01*
X004261Y005858D01*
X004333Y005847D01*
X004333Y006316D01*
X004433Y006316D01*
X004433Y005847D01*
X004505Y005858D01*
X004582Y005884D01*
X004655Y005921D01*
X004722Y005969D01*
X004779Y006027D01*
X004827Y006093D01*
X004865Y006166D01*
X004890Y006244D01*
X004868Y006175D02*
X008570Y006175D01*
X008570Y006077D02*
X004816Y006077D01*
X004731Y005978D02*
X008570Y005978D01*
X008570Y005880D02*
X008530Y005880D01*
X008250Y005880D02*
X004570Y005880D01*
X004433Y005880D02*
X004333Y005880D01*
X004333Y005978D02*
X004433Y005978D01*
X004433Y006077D02*
X004333Y006077D01*
X004333Y006175D02*
X004433Y006175D01*
X004433Y006274D02*
X004333Y006274D01*
X004333Y006372D02*
X001873Y006372D01*
X001873Y006416D02*
X002341Y006416D01*
X002330Y006487D01*
X002305Y006565D01*
X002267Y006638D01*
X002219Y006704D01*
X002162Y006762D01*
X002095Y006810D01*
X002022Y006848D01*
X001945Y006873D01*
X001873Y006884D01*
X001873Y006416D01*
X001873Y006471D02*
X001773Y006471D01*
X001773Y006569D02*
X001873Y006569D01*
X001873Y006668D02*
X001773Y006668D01*
X001773Y006766D02*
X001873Y006766D01*
X001873Y006865D02*
X001773Y006865D01*
X001676Y006865D02*
X000320Y006865D01*
X000320Y006963D02*
X006831Y006963D01*
X006803Y007032D02*
X006868Y006874D01*
X006989Y006753D01*
X007147Y006688D01*
X007318Y006688D01*
X007476Y006753D01*
X007597Y006874D01*
X007663Y007032D01*
X007663Y007723D01*
X007597Y007881D01*
X007476Y008002D01*
X007318Y008068D01*
X007147Y008068D01*
X006989Y008002D01*
X006868Y007881D01*
X006803Y007723D01*
X006803Y007032D01*
X006803Y007062D02*
X000320Y007062D01*
X000320Y007160D02*
X006803Y007160D01*
X006803Y007259D02*
X000320Y007259D01*
X000320Y007357D02*
X006803Y007357D01*
X006803Y007456D02*
X000320Y007456D01*
X000320Y007554D02*
X006803Y007554D01*
X006803Y007653D02*
X004604Y007653D01*
X004689Y007688D02*
X004490Y007606D01*
X004275Y007606D01*
X004077Y007688D01*
X003925Y007840D01*
X003867Y007979D01*
X002338Y007979D01*
X002281Y007840D01*
X002129Y007688D01*
X001930Y007606D01*
X001715Y007606D01*
X001517Y007688D01*
X001365Y007840D01*
X001283Y008038D01*
X001283Y008253D01*
X001365Y008452D01*
X001517Y008603D01*
X001715Y008686D01*
X001930Y008686D01*
X002129Y008603D01*
X002281Y008452D01*
X002294Y008419D01*
X003911Y008419D01*
X003925Y008452D01*
X004077Y008603D01*
X004275Y008686D01*
X004490Y008686D01*
X004689Y008603D01*
X004841Y008452D01*
X004923Y008253D01*
X004923Y008038D01*
X004841Y007840D01*
X004689Y007688D01*
X004752Y007751D02*
X006814Y007751D01*
X006855Y007850D02*
X004845Y007850D01*
X004885Y007948D02*
X006935Y007948D01*
X007096Y008047D02*
X004923Y008047D01*
X004923Y008145D02*
X008570Y008145D01*
X008570Y008047D02*
X008369Y008047D01*
X008530Y007948D02*
X008570Y007948D01*
X008570Y008244D02*
X004923Y008244D01*
X004886Y008342D02*
X008570Y008342D01*
X008570Y008441D02*
X004845Y008441D01*
X004753Y008539D02*
X008570Y008539D01*
X008570Y008638D02*
X004606Y008638D01*
X004159Y008638D02*
X002046Y008638D01*
X002193Y008539D02*
X004013Y008539D01*
X003920Y008441D02*
X002285Y008441D01*
X001830Y008199D02*
X001823Y008146D01*
X001830Y008199D02*
X004310Y008199D01*
X004383Y008146D01*
X003880Y007948D02*
X002325Y007948D01*
X002285Y007850D02*
X003921Y007850D01*
X004014Y007751D02*
X002192Y007751D01*
X002044Y007653D02*
X004162Y007653D01*
X004236Y006865D02*
X001970Y006865D01*
X002156Y006766D02*
X004049Y006766D01*
X003959Y006668D02*
X002246Y006668D01*
X002303Y006569D02*
X003903Y006569D01*
X003873Y006471D02*
X002333Y006471D01*
X002335Y006274D02*
X003871Y006274D01*
X003898Y006175D02*
X002308Y006175D01*
X002256Y006077D02*
X003950Y006077D01*
X004035Y005978D02*
X002171Y005978D01*
X002010Y005880D02*
X004196Y005880D01*
X004433Y006416D02*
X004901Y006416D01*
X004890Y006487D01*
X004865Y006565D01*
X004827Y006638D01*
X004779Y006704D01*
X004722Y006762D01*
X004655Y006810D01*
X004582Y006848D01*
X004505Y006873D01*
X004433Y006884D01*
X004433Y006416D01*
X004433Y006471D02*
X004333Y006471D01*
X004333Y006569D02*
X004433Y006569D01*
X004433Y006668D02*
X004333Y006668D01*
X004333Y006766D02*
X004433Y006766D01*
X004433Y006865D02*
X004333Y006865D01*
X004530Y006865D02*
X006878Y006865D01*
X006976Y006766D02*
X004716Y006766D01*
X004806Y006668D02*
X008570Y006668D01*
X008570Y006766D02*
X008489Y006766D01*
X008570Y006569D02*
X004863Y006569D01*
X004893Y006471D02*
X008570Y006471D01*
X009010Y006471D02*
X009530Y006471D01*
X009530Y006569D02*
X009010Y006569D01*
X009010Y006668D02*
X009530Y006668D01*
X009530Y006766D02*
X009489Y006766D01*
X009476Y006753D02*
X009530Y006807D01*
X009530Y005010D01*
X009499Y004979D01*
X009476Y005002D01*
X009318Y005068D01*
X009147Y005068D01*
X009010Y005011D01*
X009010Y006745D01*
X009147Y006688D01*
X009318Y006688D01*
X009476Y006753D01*
X009530Y006372D02*
X009010Y006372D01*
X009010Y006274D02*
X009530Y006274D01*
X009530Y006175D02*
X009010Y006175D01*
X009010Y006077D02*
X009530Y006077D01*
X009530Y005978D02*
X009010Y005978D01*
X009010Y005880D02*
X009530Y005880D01*
X009530Y005781D02*
X009010Y005781D01*
X009010Y005683D02*
X009530Y005683D01*
X009530Y005584D02*
X009010Y005584D01*
X009010Y005486D02*
X009530Y005486D01*
X009530Y005387D02*
X009010Y005387D01*
X009010Y005289D02*
X009530Y005289D01*
X009530Y005190D02*
X009010Y005190D01*
X009010Y005092D02*
X009530Y005092D01*
X009513Y004993D02*
X009485Y004993D01*
X009750Y004919D02*
X009750Y013719D01*
X010370Y013760D02*
X012120Y013760D01*
X012218Y013858D02*
X010370Y013858D01*
X010370Y013957D02*
X012317Y013957D01*
X012415Y014055D02*
X010370Y014055D01*
X010370Y014154D02*
X012514Y014154D01*
X012612Y014252D02*
X010370Y014252D01*
X010370Y014351D02*
X012711Y014351D01*
X012809Y014449D02*
X010392Y014449D01*
X010490Y014548D02*
X012908Y014548D01*
X013006Y014646D02*
X010589Y014646D01*
X010687Y014745D02*
X013105Y014745D01*
X013203Y014843D02*
X010786Y014843D01*
X012389Y015040D02*
X013076Y015040D01*
X012887Y015139D02*
X012579Y015139D01*
X012677Y015237D02*
X012788Y015237D01*
X012735Y015336D02*
X012731Y015336D01*
X012233Y015571D02*
X012230Y015639D01*
X012230Y016119D01*
X011030Y016119D01*
X008790Y013879D01*
X008790Y004919D01*
X008310Y004439D01*
X008233Y004378D01*
X008663Y004402D02*
X008803Y004402D01*
X008803Y004304D02*
X008663Y004304D01*
X008663Y004205D02*
X008803Y004205D01*
X008803Y004107D02*
X008663Y004107D01*
X008653Y004008D02*
X008813Y004008D01*
X008853Y003910D02*
X008612Y003910D01*
X008534Y003811D02*
X008931Y003811D01*
X009087Y003713D02*
X008378Y003713D01*
X008087Y003713D02*
X007378Y003713D01*
X007534Y003811D02*
X007931Y003811D01*
X007853Y003910D02*
X007612Y003910D01*
X007653Y004008D02*
X007813Y004008D01*
X007803Y004107D02*
X007663Y004107D01*
X007663Y004205D02*
X007803Y004205D01*
X007803Y004304D02*
X007663Y004304D01*
X007663Y004402D02*
X007803Y004402D01*
X007803Y004501D02*
X007663Y004501D01*
X007742Y004599D02*
X007803Y004599D01*
X007270Y004439D02*
X007233Y004378D01*
X007270Y004439D02*
X008390Y005559D01*
X008351Y005209D02*
X008460Y005209D01*
X008570Y005254D01*
X008570Y005010D01*
X008519Y004959D01*
X008476Y005002D01*
X008318Y005068D01*
X008210Y005068D01*
X008351Y005209D01*
X008333Y005190D02*
X008570Y005190D01*
X008570Y005092D02*
X008234Y005092D01*
X008485Y004993D02*
X008553Y004993D01*
X008782Y004599D02*
X008803Y004599D01*
X008803Y004501D02*
X008683Y004501D01*
X009233Y004378D02*
X009270Y004439D01*
X009750Y004919D01*
X009970Y004983D02*
X009970Y006772D01*
X009989Y006753D01*
X010147Y006688D01*
X010318Y006688D01*
X010410Y006726D01*
X010410Y005030D01*
X010318Y005068D01*
X010147Y005068D01*
X009989Y005002D01*
X009970Y004983D01*
X009970Y004993D02*
X009980Y004993D01*
X009970Y005092D02*
X010410Y005092D01*
X010410Y005190D02*
X009970Y005190D01*
X009970Y005289D02*
X010410Y005289D01*
X010410Y005387D02*
X009970Y005387D01*
X009970Y005486D02*
X010410Y005486D01*
X010410Y005584D02*
X009970Y005584D01*
X009970Y005683D02*
X010410Y005683D01*
X010410Y005781D02*
X009970Y005781D01*
X009970Y005880D02*
X010410Y005880D01*
X010410Y005978D02*
X009970Y005978D01*
X009970Y006077D02*
X010410Y006077D01*
X010410Y006175D02*
X009970Y006175D01*
X009970Y006274D02*
X010410Y006274D01*
X010410Y006372D02*
X009970Y006372D01*
X009970Y006471D02*
X010410Y006471D01*
X010410Y006569D02*
X009970Y006569D01*
X009970Y006668D02*
X010410Y006668D01*
X009976Y006766D02*
X009970Y006766D01*
X011476Y008002D02*
X011597Y007881D01*
X011610Y007850D01*
X011610Y009170D01*
X011544Y009104D01*
X011342Y009021D01*
X011250Y009021D01*
X011250Y008068D01*
X011318Y008068D01*
X011476Y008002D01*
X011530Y007948D02*
X011610Y007948D01*
X011610Y008047D02*
X011369Y008047D01*
X011250Y008145D02*
X011610Y008145D01*
X011610Y008244D02*
X011250Y008244D01*
X011250Y008342D02*
X011610Y008342D01*
X011610Y008441D02*
X011250Y008441D01*
X011250Y008539D02*
X011610Y008539D01*
X011610Y008638D02*
X011250Y008638D01*
X011250Y008736D02*
X011610Y008736D01*
X011610Y008835D02*
X011250Y008835D01*
X011250Y008933D02*
X011610Y008933D01*
X011610Y009032D02*
X011369Y009032D01*
X011570Y009130D02*
X011610Y009130D01*
X012050Y009032D02*
X012097Y009032D01*
X012369Y009032D02*
X013097Y009032D01*
X013369Y009032D02*
X014097Y009032D01*
X013895Y009130D02*
X013570Y009130D01*
X013669Y009229D02*
X013797Y009229D01*
X013738Y009327D02*
X013727Y009327D01*
X014369Y009032D02*
X015097Y009032D01*
X014895Y009130D02*
X014570Y009130D01*
X014669Y009229D02*
X014797Y009229D01*
X014738Y009327D02*
X014727Y009327D01*
X015233Y009571D02*
X015270Y009559D01*
X015670Y009159D01*
X015670Y005239D01*
X015830Y005079D01*
X016180Y005092D02*
X017050Y005092D01*
X017050Y005190D02*
X016756Y005190D01*
X016850Y005289D02*
X017050Y005289D01*
X017050Y005387D02*
X016891Y005387D01*
X016900Y005486D02*
X017050Y005486D01*
X017050Y005584D02*
X016885Y005584D01*
X016841Y005683D02*
X017050Y005683D01*
X017050Y005781D02*
X016770Y005781D01*
X016770Y005880D02*
X017050Y005880D01*
X017050Y005978D02*
X016770Y005978D01*
X016770Y006077D02*
X017050Y006077D01*
X017050Y006175D02*
X016770Y006175D01*
X016770Y006274D02*
X017050Y006274D01*
X017050Y006372D02*
X016770Y006372D01*
X016770Y006471D02*
X017007Y006471D01*
X016908Y006569D02*
X016770Y006569D01*
X016770Y006668D02*
X016810Y006668D01*
X016330Y006668D02*
X015890Y006668D01*
X015890Y006766D02*
X015976Y006766D01*
X016310Y007319D02*
X016550Y007079D01*
X016550Y005479D01*
X016200Y005486D02*
X015890Y005486D01*
X015890Y005584D02*
X016215Y005584D01*
X016259Y005683D02*
X015890Y005683D01*
X015890Y005781D02*
X016330Y005781D01*
X016330Y005880D02*
X015890Y005880D01*
X015890Y005978D02*
X016330Y005978D01*
X016330Y006077D02*
X015890Y006077D01*
X015890Y006175D02*
X016330Y006175D01*
X016330Y006274D02*
X015890Y006274D01*
X015890Y006372D02*
X016330Y006372D01*
X016330Y006471D02*
X015890Y006471D01*
X015890Y006569D02*
X016330Y006569D01*
X016790Y006999D02*
X016790Y015799D01*
X015783Y015899D02*
X015766Y015882D01*
X015733Y015801D01*
X015699Y015882D01*
X015682Y015899D01*
X015783Y015899D01*
X015744Y015828D02*
X015721Y015828D01*
X014783Y015899D02*
X014766Y015882D01*
X014733Y015801D01*
X014699Y015882D01*
X014682Y015899D01*
X014783Y015899D01*
X014744Y015828D02*
X014721Y015828D01*
X013161Y016321D02*
X012339Y016321D01*
X012438Y016222D02*
X013062Y016222D01*
X013050Y016124D02*
X012450Y016124D01*
X012556Y016025D02*
X012909Y016025D01*
X012811Y015927D02*
X012654Y015927D01*
X012721Y015828D02*
X012744Y015828D01*
X011783Y015899D02*
X011766Y015882D01*
X011733Y015801D01*
X011699Y015882D01*
X011682Y015899D01*
X011783Y015899D01*
X011744Y015828D02*
X011721Y015828D01*
X012021Y013661D02*
X010370Y013661D01*
X010370Y013563D02*
X011923Y013563D01*
X011824Y013464D02*
X010370Y013464D01*
X010370Y013366D02*
X011726Y013366D01*
X011627Y013267D02*
X010370Y013267D01*
X010370Y013169D02*
X011529Y013169D01*
X011430Y013070D02*
X010370Y013070D01*
X010370Y012972D02*
X011332Y012972D01*
X011233Y012873D02*
X010370Y012873D01*
X010370Y012775D02*
X011135Y012775D01*
X011036Y012676D02*
X010370Y012676D01*
X010370Y012578D02*
X010938Y012578D01*
X010839Y012479D02*
X010370Y012479D01*
X010370Y012381D02*
X010741Y012381D01*
X010642Y012282D02*
X010370Y012282D01*
X010370Y012184D02*
X010544Y012184D01*
X010445Y012085D02*
X010370Y012085D01*
X008570Y012085D02*
X000320Y012085D01*
X000320Y011987D02*
X001606Y011987D01*
X001517Y011950D02*
X001715Y012032D01*
X001930Y012032D01*
X002129Y011950D01*
X002281Y011798D01*
X002289Y011779D01*
X003917Y011779D01*
X003925Y011798D01*
X004077Y011950D01*
X004275Y012032D01*
X004490Y012032D01*
X004689Y011950D01*
X004841Y011798D01*
X004923Y011600D01*
X004923Y011385D01*
X004841Y011186D01*
X004689Y011034D01*
X004490Y010952D01*
X004275Y010952D01*
X004077Y011034D01*
X003925Y011186D01*
X003862Y011339D01*
X002344Y011339D01*
X002281Y011186D01*
X002129Y011034D01*
X001930Y010952D01*
X001715Y010952D01*
X001517Y011034D01*
X001365Y011186D01*
X001283Y011385D01*
X001283Y011600D01*
X001365Y011798D01*
X001517Y011950D01*
X001455Y011888D02*
X000320Y011888D01*
X000320Y011790D02*
X001362Y011790D01*
X001321Y011691D02*
X000320Y011691D01*
X000320Y011593D02*
X001283Y011593D01*
X001283Y011494D02*
X000320Y011494D01*
X000320Y011396D02*
X001283Y011396D01*
X001319Y011297D02*
X000320Y011297D01*
X000320Y011199D02*
X001360Y011199D01*
X001451Y011100D02*
X000320Y011100D01*
X000320Y011002D02*
X001596Y011002D01*
X002050Y011002D02*
X004156Y011002D01*
X004011Y011100D02*
X002194Y011100D01*
X002286Y011199D02*
X003920Y011199D01*
X003879Y011297D02*
X002326Y011297D01*
X001823Y011492D02*
X001830Y011559D01*
X004310Y011559D01*
X004383Y011492D01*
X004923Y011494D02*
X008570Y011494D01*
X008570Y011396D02*
X004923Y011396D01*
X004886Y011297D02*
X008570Y011297D01*
X008570Y011199D02*
X004846Y011199D01*
X004754Y011100D02*
X008570Y011100D01*
X008570Y011002D02*
X004610Y011002D01*
X004923Y011593D02*
X008570Y011593D01*
X008570Y011691D02*
X004885Y011691D01*
X004844Y011790D02*
X008570Y011790D01*
X008570Y011888D02*
X004750Y011888D01*
X004600Y011987D02*
X008570Y011987D01*
X008570Y012184D02*
X000320Y012184D01*
X000320Y012282D02*
X008570Y012282D01*
X008570Y012381D02*
X000320Y012381D01*
X000320Y012479D02*
X008570Y012479D01*
X008570Y012578D02*
X004584Y012578D01*
X004582Y012577D02*
X004655Y012614D01*
X004722Y012662D01*
X004779Y012720D01*
X004827Y012786D01*
X004865Y012859D01*
X004890Y012937D01*
X004901Y013009D01*
X004433Y013009D01*
X004433Y012540D01*
X004505Y012551D01*
X004582Y012577D01*
X004433Y012578D02*
X004333Y012578D01*
X004333Y012676D02*
X004433Y012676D01*
X004433Y012775D02*
X004333Y012775D01*
X004333Y012873D02*
X004433Y012873D01*
X004433Y012972D02*
X004333Y012972D01*
X004333Y013070D02*
X001873Y013070D01*
X001830Y013079D02*
X001823Y013059D01*
X001830Y013079D02*
X004310Y013079D01*
X004383Y013059D01*
X004433Y013070D02*
X008570Y013070D01*
X008570Y012972D02*
X004895Y012972D01*
X004869Y012873D02*
X008570Y012873D01*
X008570Y012775D02*
X004819Y012775D01*
X004736Y012676D02*
X008570Y012676D01*
X008570Y013169D02*
X004892Y013169D01*
X004860Y013267D02*
X008570Y013267D01*
X008570Y013366D02*
X004802Y013366D01*
X004709Y013464D02*
X008570Y013464D01*
X004433Y013464D02*
X004333Y013464D01*
X004333Y013366D02*
X004433Y013366D01*
X004433Y013267D02*
X004333Y013267D01*
X004333Y013169D02*
X004433Y013169D01*
X004056Y013464D02*
X002149Y013464D01*
X002242Y013366D02*
X003963Y013366D01*
X003905Y013267D02*
X002300Y013267D01*
X002332Y013169D02*
X003874Y013169D01*
X003870Y012972D02*
X002335Y012972D01*
X002330Y012937D02*
X002341Y013009D01*
X001873Y013009D01*
X001873Y012540D01*
X001945Y012551D01*
X002022Y012577D01*
X002095Y012614D01*
X002162Y012662D01*
X002219Y012720D01*
X002267Y012786D01*
X002305Y012859D01*
X002330Y012937D01*
X002309Y012873D02*
X003896Y012873D01*
X003946Y012775D02*
X002259Y012775D01*
X002176Y012676D02*
X004030Y012676D01*
X004181Y012578D02*
X002024Y012578D01*
X001873Y012578D02*
X001773Y012578D01*
X001773Y012676D02*
X001873Y012676D01*
X001873Y012775D02*
X001773Y012775D01*
X001773Y012873D02*
X001873Y012873D01*
X001873Y012972D02*
X001773Y012972D01*
X001773Y013169D02*
X001873Y013169D01*
X001873Y013267D02*
X001773Y013267D01*
X001773Y013366D02*
X001873Y013366D01*
X001873Y013464D02*
X001773Y013464D01*
X001310Y012972D02*
X000320Y012972D01*
X000320Y012873D02*
X001336Y012873D01*
X001386Y012775D02*
X000320Y012775D01*
X000320Y012676D02*
X001470Y012676D01*
X001621Y012578D02*
X000320Y012578D01*
X002040Y011987D02*
X004166Y011987D01*
X004015Y011888D02*
X002190Y011888D01*
X002284Y011790D02*
X003922Y011790D01*
X004261Y010219D02*
X004333Y010231D01*
X004333Y009762D01*
X004433Y009762D01*
X004901Y009762D01*
X004890Y009834D01*
X004865Y009912D01*
X004827Y009985D01*
X004779Y010051D01*
X004722Y010109D01*
X004655Y010157D01*
X004582Y010194D01*
X004505Y010219D01*
X004433Y010231D01*
X004433Y009762D01*
X004433Y009662D01*
X004901Y009662D01*
X004890Y009590D01*
X004865Y009512D01*
X004827Y009440D01*
X004779Y009373D01*
X004722Y009315D01*
X004655Y009267D01*
X004582Y009230D01*
X004505Y009205D01*
X004433Y009194D01*
X004433Y009662D01*
X004333Y009662D01*
X004333Y009194D01*
X004261Y009205D01*
X004183Y009230D01*
X004110Y009267D01*
X004044Y009315D01*
X003986Y009373D01*
X003938Y009440D01*
X003901Y009512D01*
X003876Y009590D01*
X003864Y009662D01*
X004333Y009662D01*
X004333Y009762D01*
X003864Y009762D01*
X003876Y009834D01*
X003901Y009912D01*
X003938Y009985D01*
X003986Y010051D01*
X004044Y010109D01*
X004110Y010157D01*
X004183Y010194D01*
X004261Y010219D01*
X004244Y010214D02*
X001962Y010214D01*
X001945Y010219D02*
X001873Y010231D01*
X001873Y009762D01*
X002341Y009762D01*
X002330Y009834D01*
X002305Y009912D01*
X002267Y009985D01*
X002219Y010051D01*
X002162Y010109D01*
X002095Y010157D01*
X002022Y010194D01*
X001945Y010219D01*
X001873Y010214D02*
X001773Y010214D01*
X001773Y010231D02*
X001701Y010219D01*
X001623Y010194D01*
X001550Y010157D01*
X001484Y010109D01*
X001426Y010051D01*
X001378Y009985D01*
X001341Y009912D01*
X001316Y009834D01*
X001304Y009762D01*
X001773Y009762D01*
X001773Y010231D01*
X001684Y010214D02*
X000320Y010214D01*
X000320Y010312D02*
X008570Y010312D01*
X008570Y010214D02*
X004522Y010214D01*
X004433Y010214D02*
X004333Y010214D01*
X004333Y010115D02*
X004433Y010115D01*
X004433Y010017D02*
X004333Y010017D01*
X004333Y009918D02*
X004433Y009918D01*
X004433Y009820D02*
X004333Y009820D01*
X004333Y009721D02*
X001873Y009721D01*
X001873Y009762D02*
X001873Y009662D01*
X002341Y009662D01*
X002330Y009590D01*
X002305Y009512D01*
X002267Y009440D01*
X002219Y009373D01*
X002162Y009315D01*
X002095Y009267D01*
X002022Y009230D01*
X001945Y009205D01*
X001873Y009194D01*
X001873Y009662D01*
X001773Y009662D01*
X001773Y009194D01*
X001701Y009205D01*
X001623Y009230D01*
X001550Y009267D01*
X001484Y009315D01*
X001426Y009373D01*
X001378Y009440D01*
X001341Y009512D01*
X001316Y009590D01*
X001304Y009662D01*
X001773Y009662D01*
X001773Y009762D01*
X001873Y009762D01*
X001873Y009820D02*
X001773Y009820D01*
X001773Y009918D02*
X001873Y009918D01*
X001873Y010017D02*
X001773Y010017D01*
X001773Y010115D02*
X001873Y010115D01*
X002153Y010115D02*
X004053Y010115D01*
X003961Y010017D02*
X002244Y010017D01*
X002301Y009918D02*
X003904Y009918D01*
X003873Y009820D02*
X002332Y009820D01*
X002335Y009623D02*
X003870Y009623D01*
X003897Y009524D02*
X002308Y009524D01*
X002257Y009426D02*
X003948Y009426D01*
X004032Y009327D02*
X002173Y009327D01*
X002018Y009229D02*
X004188Y009229D01*
X004333Y009229D02*
X004433Y009229D01*
X004433Y009327D02*
X004333Y009327D01*
X004333Y009426D02*
X004433Y009426D01*
X004433Y009524D02*
X004333Y009524D01*
X004333Y009623D02*
X004433Y009623D01*
X004433Y009721D02*
X008570Y009721D01*
X008570Y009623D02*
X004895Y009623D01*
X004868Y009524D02*
X008570Y009524D01*
X008570Y009426D02*
X004817Y009426D01*
X004733Y009327D02*
X008570Y009327D01*
X008570Y009229D02*
X004578Y009229D01*
X004383Y009712D02*
X004310Y009719D01*
X001830Y009719D01*
X001823Y009712D01*
X001750Y009639D01*
X001270Y009159D01*
X001472Y009327D02*
X000320Y009327D01*
X000320Y009229D02*
X001628Y009229D01*
X001773Y009229D02*
X001873Y009229D01*
X001873Y009327D02*
X001773Y009327D01*
X001773Y009426D02*
X001873Y009426D01*
X001873Y009524D02*
X001773Y009524D01*
X001773Y009623D02*
X001873Y009623D01*
X001773Y009721D02*
X000320Y009721D01*
X000320Y009623D02*
X001310Y009623D01*
X001337Y009524D02*
X000320Y009524D01*
X000320Y009426D02*
X001388Y009426D01*
X001313Y009820D02*
X000320Y009820D01*
X000320Y009918D02*
X001344Y009918D01*
X001401Y010017D02*
X000320Y010017D01*
X000320Y010115D02*
X001493Y010115D01*
X000320Y010411D02*
X008570Y010411D01*
X008570Y010509D02*
X000320Y010509D01*
X000320Y010608D02*
X008570Y010608D01*
X008570Y010706D02*
X000320Y010706D01*
X000320Y010805D02*
X008570Y010805D01*
X008570Y010903D02*
X000320Y010903D01*
X000320Y009130D02*
X008570Y009130D01*
X008570Y009032D02*
X000320Y009032D01*
X000320Y008933D02*
X008570Y008933D01*
X008570Y008835D02*
X000320Y008835D01*
X000320Y008736D02*
X008570Y008736D01*
X008096Y008047D02*
X007369Y008047D01*
X007530Y007948D02*
X007935Y007948D01*
X007855Y007850D02*
X007610Y007850D01*
X007651Y007751D02*
X007814Y007751D01*
X007803Y007653D02*
X007663Y007653D01*
X007663Y007554D02*
X007803Y007554D01*
X007803Y007456D02*
X007663Y007456D01*
X007663Y007357D02*
X007803Y007357D01*
X007803Y007259D02*
X007663Y007259D01*
X007663Y007160D02*
X007803Y007160D01*
X007803Y007062D02*
X007663Y007062D01*
X007634Y006963D02*
X007831Y006963D01*
X007878Y006865D02*
X007588Y006865D01*
X007489Y006766D02*
X007976Y006766D01*
X007513Y004993D02*
X007485Y004993D01*
X009378Y003713D02*
X010087Y003713D01*
X009931Y003811D02*
X009534Y003811D01*
X009612Y003910D02*
X009853Y003910D01*
X009813Y004008D02*
X009653Y004008D01*
X009663Y004107D02*
X009803Y004107D01*
X009803Y004205D02*
X009663Y004205D01*
X009663Y004304D02*
X009803Y004304D01*
X009803Y004402D02*
X009663Y004402D01*
X009663Y004501D02*
X009803Y004501D01*
X009803Y004599D02*
X009742Y004599D01*
X010233Y004378D02*
X010310Y004439D01*
X010630Y004759D01*
X010850Y004895D02*
X010882Y004895D01*
X010850Y004993D02*
X010980Y004993D01*
X011270Y004439D02*
X011233Y004378D01*
X011270Y004439D02*
X011830Y004999D01*
X012050Y005027D02*
X012147Y005068D01*
X012318Y005068D01*
X012410Y005030D01*
X012410Y006726D01*
X012318Y006688D01*
X012147Y006688D01*
X012050Y006728D01*
X012050Y005027D01*
X012050Y005092D02*
X012410Y005092D01*
X012410Y005190D02*
X012050Y005190D01*
X012050Y005289D02*
X012410Y005289D01*
X012410Y005387D02*
X012050Y005387D01*
X012050Y005486D02*
X012410Y005486D01*
X012410Y005584D02*
X012050Y005584D01*
X012050Y005683D02*
X012410Y005683D01*
X012410Y005781D02*
X012050Y005781D01*
X012050Y005880D02*
X012410Y005880D01*
X012410Y005978D02*
X012050Y005978D01*
X012050Y006077D02*
X012410Y006077D01*
X012410Y006175D02*
X012050Y006175D01*
X012050Y006274D02*
X012410Y006274D01*
X012410Y006372D02*
X012050Y006372D01*
X012050Y006471D02*
X012410Y006471D01*
X012410Y006569D02*
X012050Y006569D01*
X012050Y006668D02*
X012410Y006668D01*
X013203Y007062D02*
X013263Y007062D01*
X013263Y007160D02*
X013203Y007160D01*
X013203Y007259D02*
X013263Y007259D01*
X013263Y007456D02*
X013203Y007456D01*
X013203Y007554D02*
X013263Y007554D01*
X013263Y007653D02*
X013203Y007653D01*
X013203Y007751D02*
X013263Y007751D01*
X013263Y007850D02*
X013203Y007850D01*
X013203Y007948D02*
X013263Y007948D01*
X012963Y007948D02*
X012850Y007948D01*
X012850Y007850D02*
X012881Y007850D01*
X015369Y009032D02*
X015450Y009032D01*
X015890Y009032D02*
X016097Y009032D01*
X016123Y009021D02*
X016342Y009021D01*
X016544Y009104D01*
X016570Y009130D01*
X016570Y007908D01*
X016476Y008002D01*
X016318Y008068D01*
X016147Y008068D01*
X015989Y008002D01*
X015890Y007903D01*
X015890Y009135D01*
X015921Y009104D01*
X016123Y009021D01*
X016369Y009032D02*
X016570Y009032D01*
X016570Y008933D02*
X015890Y008933D01*
X015890Y008835D02*
X016570Y008835D01*
X016570Y008736D02*
X015890Y008736D01*
X015890Y008638D02*
X016570Y008638D01*
X016570Y008539D02*
X015890Y008539D01*
X015890Y008441D02*
X016570Y008441D01*
X016570Y008342D02*
X015890Y008342D01*
X015890Y008244D02*
X016570Y008244D01*
X016570Y008145D02*
X015890Y008145D01*
X015890Y008047D02*
X016096Y008047D01*
X015935Y007948D02*
X015890Y007948D01*
X016369Y008047D02*
X016570Y008047D01*
X016570Y007948D02*
X016530Y007948D01*
X017010Y008047D02*
X017096Y008047D01*
X017010Y008145D02*
X017610Y008145D01*
X017607Y008047D02*
X017369Y008047D01*
X017610Y008244D02*
X017010Y008244D01*
X017010Y008342D02*
X017610Y008342D01*
X017610Y008441D02*
X017010Y008441D01*
X017010Y008539D02*
X017610Y008539D01*
X017610Y008638D02*
X017010Y008638D01*
X017010Y008736D02*
X017610Y008736D01*
X017610Y008835D02*
X017010Y008835D01*
X017010Y008933D02*
X017610Y008933D01*
X017610Y009032D02*
X017010Y009032D01*
X017010Y009130D02*
X017597Y009130D01*
X017425Y009229D02*
X017010Y009229D01*
X017010Y009327D02*
X017354Y009327D01*
X017320Y009426D02*
X017010Y009426D01*
X017010Y009524D02*
X017320Y009524D01*
X017351Y009623D02*
X017010Y009623D01*
X017010Y009721D02*
X017418Y009721D01*
X017830Y009479D02*
X017830Y007959D01*
X017270Y007399D01*
X017233Y007378D01*
X017663Y007357D02*
X017803Y007357D01*
X017803Y007259D02*
X017663Y007259D01*
X017663Y007160D02*
X017803Y007160D01*
X017803Y007062D02*
X017663Y007062D01*
X017634Y006963D02*
X017831Y006963D01*
X017878Y006865D02*
X017588Y006865D01*
X017489Y006766D02*
X017976Y006766D01*
X017432Y006668D02*
X020090Y006668D01*
X020090Y006569D02*
X017490Y006569D01*
X017490Y006471D02*
X020090Y006471D01*
X020090Y006372D02*
X017490Y006372D01*
X017490Y006274D02*
X020090Y006274D01*
X020090Y006175D02*
X017490Y006175D01*
X017490Y006077D02*
X020090Y006077D01*
X020090Y005978D02*
X017490Y005978D01*
X017490Y005880D02*
X020090Y005880D01*
X020090Y005781D02*
X017490Y005781D01*
X017490Y005683D02*
X020090Y005683D01*
X020090Y005584D02*
X017490Y005584D01*
X017490Y005486D02*
X020090Y005486D01*
X020090Y005387D02*
X017490Y005387D01*
X017490Y005289D02*
X020090Y005289D01*
X020090Y005190D02*
X017490Y005190D01*
X017490Y005092D02*
X020090Y005092D01*
X019980Y004993D02*
X019485Y004993D01*
X019584Y004895D02*
X019882Y004895D01*
X019833Y004796D02*
X019632Y004796D01*
X019663Y004698D02*
X019803Y004698D01*
X019803Y004599D02*
X019663Y004599D01*
X019663Y004501D02*
X019803Y004501D01*
X018980Y004993D02*
X018485Y004993D01*
X018476Y005002D02*
X018318Y005068D01*
X018147Y005068D01*
X017989Y005002D01*
X017868Y004881D01*
X017803Y004723D01*
X017803Y004032D01*
X017868Y003874D01*
X017989Y003753D01*
X018147Y003688D01*
X018318Y003688D01*
X018476Y003753D01*
X018597Y003874D01*
X018663Y004032D01*
X018663Y004723D01*
X018597Y004881D01*
X018476Y005002D01*
X018584Y004895D02*
X018882Y004895D01*
X018833Y004796D02*
X018632Y004796D01*
X018663Y004698D02*
X018803Y004698D01*
X018803Y004599D02*
X018663Y004599D01*
X018663Y004501D02*
X018803Y004501D01*
X018803Y004402D02*
X018663Y004402D01*
X018663Y004304D02*
X018803Y004304D01*
X018803Y004205D02*
X018663Y004205D01*
X018663Y004107D02*
X018803Y004107D01*
X018813Y004008D02*
X018653Y004008D01*
X018612Y003910D02*
X018853Y003910D01*
X018931Y003811D02*
X018534Y003811D01*
X018378Y003713D02*
X019087Y003713D01*
X018087Y003713D02*
X017378Y003713D01*
X017534Y003811D02*
X017931Y003811D01*
X017853Y003910D02*
X017612Y003910D01*
X017653Y004008D02*
X017813Y004008D01*
X017803Y004107D02*
X017663Y004107D01*
X017663Y004205D02*
X017803Y004205D01*
X017803Y004304D02*
X017663Y004304D01*
X017663Y004402D02*
X017803Y004402D01*
X017803Y004501D02*
X017663Y004501D01*
X017663Y004599D02*
X017803Y004599D01*
X017803Y004698D02*
X017663Y004698D01*
X017632Y004796D02*
X017833Y004796D01*
X017882Y004895D02*
X017584Y004895D01*
X017490Y004993D02*
X017980Y004993D01*
X017270Y004439D02*
X017233Y004378D01*
X017270Y004439D02*
X017270Y006519D01*
X016790Y006999D01*
X016310Y007319D02*
X016233Y007378D01*
X017663Y007456D02*
X017803Y007456D01*
X017803Y007554D02*
X017737Y007554D01*
X018230Y007399D02*
X018233Y007378D01*
X018230Y007399D02*
X018230Y009399D01*
X018470Y009144D02*
X018490Y009124D01*
X018490Y007988D01*
X018476Y008002D01*
X018450Y008013D01*
X018450Y009124D01*
X018470Y009144D01*
X018456Y009130D02*
X018484Y009130D01*
X018490Y009032D02*
X018450Y009032D01*
X018450Y008933D02*
X018490Y008933D01*
X018490Y008835D02*
X018450Y008835D01*
X018450Y008736D02*
X018490Y008736D01*
X018490Y008638D02*
X018450Y008638D01*
X018450Y008539D02*
X018490Y008539D01*
X018490Y008441D02*
X018450Y008441D01*
X018450Y008342D02*
X018490Y008342D01*
X018490Y008244D02*
X018450Y008244D01*
X018450Y008145D02*
X018490Y008145D01*
X018490Y008047D02*
X018450Y008047D01*
X018710Y007879D02*
X018710Y009399D01*
X016570Y010017D02*
X016564Y010017D01*
X016570Y010115D02*
X016355Y010115D01*
X016110Y010115D02*
X015355Y010115D01*
X015564Y010017D02*
X015901Y010017D01*
X015802Y009918D02*
X015663Y009918D01*
X015725Y009820D02*
X015741Y009820D01*
X015110Y010115D02*
X014355Y010115D01*
X014564Y010017D02*
X014901Y010017D01*
X014802Y009918D02*
X014663Y009918D01*
X014725Y009820D02*
X014741Y009820D01*
X014110Y010115D02*
X013355Y010115D01*
X013564Y010017D02*
X013901Y010017D01*
X013802Y009918D02*
X013663Y009918D01*
X013725Y009820D02*
X013741Y009820D01*
X015890Y009130D02*
X015895Y009130D01*
X018710Y007879D02*
X019190Y007399D01*
X019233Y007378D01*
X019663Y007357D02*
X019803Y007357D01*
X019803Y007259D02*
X019663Y007259D01*
X019663Y007160D02*
X019803Y007160D01*
X019803Y007062D02*
X019663Y007062D01*
X019634Y006963D02*
X019831Y006963D01*
X019878Y006865D02*
X019588Y006865D01*
X019489Y006766D02*
X019976Y006766D01*
X018976Y006766D02*
X018489Y006766D01*
X018588Y006865D02*
X018878Y006865D01*
X018831Y006963D02*
X018634Y006963D01*
X018663Y007062D02*
X018803Y007062D01*
X018803Y007160D02*
X018663Y007160D01*
X018663Y007259D02*
X018803Y007259D01*
X018803Y007357D02*
X018663Y007357D01*
X018663Y007456D02*
X018803Y007456D01*
X018723Y007554D02*
X018663Y007554D01*
X019369Y008047D02*
X020096Y008047D01*
X019935Y007948D02*
X019530Y007948D01*
X019610Y007850D02*
X019855Y007850D01*
X019814Y007751D02*
X019651Y007751D01*
X019663Y007653D02*
X019803Y007653D01*
X019803Y007554D02*
X019663Y007554D01*
X019663Y007456D02*
X019803Y007456D01*
X021675Y007653D02*
X024490Y007653D01*
X024490Y007751D02*
X021774Y007751D01*
X021872Y007850D02*
X024490Y007850D01*
X024490Y007948D02*
X021971Y007948D01*
X022069Y008047D02*
X024490Y008047D01*
X024490Y008145D02*
X022168Y008145D01*
X022266Y008244D02*
X024490Y008244D01*
X024490Y008342D02*
X022365Y008342D01*
X022463Y008441D02*
X024490Y008441D01*
X024490Y008539D02*
X022562Y008539D01*
X022610Y008638D02*
X024490Y008638D01*
X024490Y008736D02*
X022610Y008736D01*
X022610Y008835D02*
X024490Y008835D01*
X024490Y008933D02*
X022610Y008933D01*
X022610Y009032D02*
X024490Y009032D01*
X024490Y009130D02*
X022610Y009130D01*
X022610Y009229D02*
X024490Y009229D01*
X024490Y009327D02*
X022610Y009327D01*
X022610Y009426D02*
X024490Y009426D01*
X024490Y009524D02*
X022610Y009524D01*
X022610Y009623D02*
X024490Y009623D01*
X024490Y009721D02*
X023100Y009721D01*
X023250Y009820D02*
X024490Y009820D01*
X024490Y009918D02*
X023341Y009918D01*
X023381Y010017D02*
X024490Y010017D01*
X024490Y010115D02*
X023414Y010115D01*
X023414Y010214D02*
X024490Y010214D01*
X024490Y010312D02*
X023410Y010312D01*
X022688Y009721D02*
X022610Y009721D01*
X024930Y009721D02*
X025738Y009721D01*
X025769Y009711D02*
X025847Y009699D01*
X025847Y009699D01*
X025847Y010160D01*
X025386Y010160D01*
X025386Y010159D01*
X025398Y010082D01*
X025423Y010007D01*
X025458Y009937D01*
X025505Y009873D01*
X025560Y009817D01*
X025624Y009771D01*
X025694Y009735D01*
X025769Y009711D01*
X025847Y009721D02*
X025925Y009721D01*
X025925Y009699D02*
X025925Y009699D01*
X025925Y010160D01*
X025925Y010237D01*
X026386Y010237D01*
X026386Y010238D01*
X026374Y010316D01*
X026349Y010391D01*
X026314Y010461D01*
X026267Y010524D01*
X026212Y010580D01*
X026148Y010626D01*
X026078Y010662D01*
X026003Y010686D01*
X025925Y010699D01*
X025925Y010699D01*
X025925Y010237D01*
X025847Y010237D01*
X025847Y010160D01*
X025925Y010160D01*
X026386Y010160D01*
X026386Y010159D01*
X026374Y010082D01*
X026349Y010007D01*
X026314Y009937D01*
X026267Y009873D01*
X026212Y009817D01*
X026148Y009771D01*
X026078Y009735D01*
X026003Y009711D01*
X025925Y009699D01*
X026035Y009721D02*
X027145Y009721D01*
X027145Y009623D02*
X024930Y009623D01*
X024930Y009524D02*
X027145Y009524D01*
X027145Y009426D02*
X024930Y009426D01*
X024930Y009327D02*
X027145Y009327D01*
X027145Y009229D02*
X024930Y009229D01*
X024930Y009130D02*
X027145Y009130D01*
X027145Y009032D02*
X024930Y009032D01*
X024930Y008933D02*
X027145Y008933D01*
X027145Y008835D02*
X024930Y008835D01*
X024930Y008736D02*
X027145Y008736D01*
X027145Y008638D02*
X024930Y008638D01*
X024930Y008539D02*
X027145Y008539D01*
X027145Y008441D02*
X024930Y008441D01*
X024930Y008342D02*
X027145Y008342D01*
X027145Y008244D02*
X024930Y008244D01*
X024930Y008145D02*
X027145Y008145D01*
X027145Y008047D02*
X024930Y008047D01*
X024930Y007948D02*
X027145Y007948D01*
X027145Y007850D02*
X024930Y007850D01*
X024930Y007751D02*
X027145Y007751D01*
X027145Y007653D02*
X024930Y007653D01*
X024930Y007554D02*
X027145Y007554D01*
X027145Y007456D02*
X024930Y007456D01*
X024930Y007357D02*
X027145Y007357D01*
X027145Y007259D02*
X024930Y007259D01*
X024930Y007160D02*
X027145Y007160D01*
X027145Y007062D02*
X024930Y007062D01*
X025266Y006963D02*
X025491Y006963D01*
X025392Y006865D02*
X025310Y006865D01*
X026049Y006963D02*
X027145Y006963D01*
X027145Y006865D02*
X026148Y006865D01*
X026246Y006766D02*
X027145Y006766D01*
X027145Y006668D02*
X026310Y006668D01*
X026310Y006569D02*
X027145Y006569D01*
X027145Y006471D02*
X026310Y006471D01*
X026310Y006372D02*
X027145Y006372D01*
X027145Y006274D02*
X026310Y006274D01*
X026230Y006175D02*
X027145Y006175D01*
X027145Y006077D02*
X026132Y006077D01*
X026034Y005978D02*
X027145Y005978D01*
X027145Y005880D02*
X026133Y005880D01*
X026231Y005781D02*
X027145Y005781D01*
X027145Y005683D02*
X026310Y005683D01*
X026310Y005584D02*
X027145Y005584D01*
X027145Y005486D02*
X026310Y005486D01*
X026310Y005387D02*
X027145Y005387D01*
X027145Y005289D02*
X026310Y005289D01*
X026245Y005190D02*
X027145Y005190D01*
X027145Y005092D02*
X026147Y005092D01*
X026048Y004993D02*
X027145Y004993D01*
X027145Y004895D02*
X026089Y004895D01*
X026188Y004796D02*
X027145Y004796D01*
X027145Y004698D02*
X026286Y004698D01*
X026290Y004599D02*
X027145Y004599D01*
X027145Y004501D02*
X025820Y004501D01*
X025770Y004479D02*
X025750Y004519D01*
X025270Y004999D01*
X025720Y004402D02*
X025820Y004402D01*
X025820Y004429D02*
X025820Y003959D01*
X025985Y003959D01*
X026290Y004263D01*
X026290Y004429D01*
X025820Y004429D01*
X025820Y004304D02*
X025720Y004304D01*
X025720Y004205D02*
X025820Y004205D01*
X025820Y004107D02*
X025720Y004107D01*
X025720Y004008D02*
X025820Y004008D01*
X026035Y004008D02*
X027145Y004008D01*
X027145Y003910D02*
X022344Y003910D01*
X022344Y004008D02*
X024477Y004008D01*
X024378Y004107D02*
X022337Y004107D01*
X022296Y004205D02*
X024280Y004205D01*
X025063Y004008D02*
X025505Y004008D01*
X025407Y004107D02*
X025162Y004107D01*
X025260Y004205D02*
X025308Y004205D01*
X026133Y004107D02*
X027145Y004107D01*
X027145Y004205D02*
X026232Y004205D01*
X026290Y004304D02*
X027145Y004304D01*
X027145Y004402D02*
X026290Y004402D01*
X027145Y003811D02*
X022316Y003811D01*
X022276Y003713D02*
X027145Y003713D01*
X027145Y003614D02*
X022197Y003614D01*
X022084Y003516D02*
X027145Y003516D01*
X021804Y003984D02*
X021750Y004039D01*
X021750Y004519D01*
X017087Y003713D02*
X016378Y003713D01*
X016534Y003811D02*
X016931Y003811D01*
X016853Y003910D02*
X016612Y003910D01*
X016653Y004008D02*
X016813Y004008D01*
X016803Y004107D02*
X016663Y004107D01*
X016663Y004205D02*
X016803Y004205D01*
X016803Y004304D02*
X016663Y004304D01*
X016663Y004402D02*
X016803Y004402D01*
X016803Y004501D02*
X016663Y004501D01*
X016663Y004599D02*
X016803Y004599D01*
X016803Y004698D02*
X016663Y004698D01*
X016632Y004796D02*
X016833Y004796D01*
X016882Y004895D02*
X016584Y004895D01*
X016485Y004993D02*
X016980Y004993D01*
X016344Y005190D02*
X016163Y005190D01*
X016115Y005289D02*
X016250Y005289D01*
X016209Y005387D02*
X016000Y005387D01*
X015487Y004993D02*
X015485Y004993D01*
X015663Y004698D02*
X015803Y004698D01*
X015803Y004599D02*
X015663Y004599D01*
X015663Y004501D02*
X015803Y004501D01*
X015803Y004402D02*
X015663Y004402D01*
X015663Y004304D02*
X015803Y004304D01*
X015803Y004205D02*
X015663Y004205D01*
X015663Y004107D02*
X015803Y004107D01*
X015813Y004008D02*
X015653Y004008D01*
X015612Y003910D02*
X015853Y003910D01*
X015931Y003811D02*
X015534Y003811D01*
X015378Y003713D02*
X016087Y003713D01*
X011803Y004501D02*
X011663Y004501D01*
X011742Y004599D02*
X011803Y004599D01*
X008570Y009820D02*
X004892Y009820D01*
X004861Y009918D02*
X008570Y009918D01*
X008570Y010017D02*
X004804Y010017D01*
X004713Y010115D02*
X008570Y010115D01*
X001773Y006372D02*
X000320Y006372D01*
X000320Y006274D02*
X001311Y006274D01*
X001338Y006175D02*
X000320Y006175D01*
X000320Y006077D02*
X001390Y006077D01*
X001475Y005978D02*
X000320Y005978D01*
X000320Y006471D02*
X001313Y006471D01*
X001343Y006569D02*
X000320Y006569D01*
X000320Y006668D02*
X001399Y006668D01*
X001489Y006766D02*
X000320Y006766D01*
X000320Y007653D02*
X001602Y007653D01*
X001454Y007751D02*
X000320Y007751D01*
X000320Y007850D02*
X001361Y007850D01*
X001320Y007948D02*
X000320Y007948D01*
X000320Y008047D02*
X001283Y008047D01*
X001283Y008145D02*
X000320Y008145D01*
X000320Y008244D02*
X001283Y008244D01*
X001320Y008342D02*
X000320Y008342D01*
X000320Y008441D02*
X001360Y008441D01*
X001453Y008539D02*
X000320Y008539D01*
X000320Y008638D02*
X001599Y008638D01*
X000320Y003636D02*
X000368Y003570D01*
X000425Y003513D01*
X000458Y003489D01*
X000320Y003489D01*
X000320Y003636D01*
X000320Y003614D02*
X000336Y003614D01*
X000320Y003516D02*
X000422Y003516D01*
X017010Y013563D02*
X021603Y013563D01*
X021701Y013661D02*
X017010Y013661D01*
X017010Y013760D02*
X021800Y013760D01*
X024820Y013760D02*
X027145Y013760D01*
X027145Y013858D02*
X017010Y013858D01*
X017010Y013957D02*
X027145Y013957D01*
X027145Y014055D02*
X017010Y014055D01*
X017010Y014154D02*
X027145Y014154D01*
X027145Y014252D02*
X017010Y014252D01*
X017010Y014351D02*
X027145Y014351D01*
X027145Y014449D02*
X017010Y014449D01*
X024919Y013661D02*
X027145Y013661D01*
X027145Y013563D02*
X024930Y013563D01*
X024930Y013464D02*
X027145Y013464D01*
X027145Y013366D02*
X024930Y013366D01*
X024930Y013267D02*
X027145Y013267D01*
X027145Y013169D02*
X024930Y013169D01*
X024930Y013070D02*
X027145Y013070D01*
X027145Y012972D02*
X024930Y012972D01*
X024930Y012873D02*
X027145Y012873D01*
X027145Y012775D02*
X024930Y012775D01*
X024930Y012676D02*
X027145Y012676D01*
X027145Y012578D02*
X024930Y012578D01*
X024930Y012479D02*
X027145Y012479D01*
X027145Y012381D02*
X024930Y012381D01*
X024930Y012282D02*
X027145Y012282D01*
X027145Y012184D02*
X024930Y012184D01*
X024930Y012085D02*
X027145Y012085D01*
X027145Y011987D02*
X024930Y011987D01*
X024930Y011888D02*
X027145Y011888D01*
X027145Y011790D02*
X024930Y011790D01*
X024930Y011691D02*
X027145Y011691D01*
X027145Y011593D02*
X024930Y011593D01*
X024930Y011494D02*
X027145Y011494D01*
X027145Y011396D02*
X024930Y011396D01*
X024930Y011297D02*
X027145Y011297D01*
X027145Y011199D02*
X024930Y011199D01*
X024930Y011100D02*
X027145Y011100D01*
X027145Y011002D02*
X024930Y011002D01*
X024930Y010903D02*
X027145Y010903D01*
X027145Y010805D02*
X024930Y010805D01*
X024930Y010706D02*
X027145Y010706D01*
X027145Y010608D02*
X026174Y010608D01*
X026278Y010509D02*
X027145Y010509D01*
X027145Y010411D02*
X026339Y010411D01*
X026374Y010312D02*
X027145Y010312D01*
X027145Y010214D02*
X025925Y010214D01*
X025847Y010214D02*
X024930Y010214D01*
X024930Y010312D02*
X025398Y010312D01*
X025398Y010316D02*
X025386Y010238D01*
X025386Y010237D01*
X025847Y010237D01*
X025847Y010699D01*
X025769Y010686D01*
X025694Y010662D01*
X025624Y010626D01*
X025560Y010580D01*
X025505Y010524D01*
X025458Y010461D01*
X025423Y010391D01*
X025398Y010316D01*
X025433Y010411D02*
X024930Y010411D01*
X024930Y010509D02*
X025494Y010509D01*
X025598Y010608D02*
X024930Y010608D01*
X024930Y010115D02*
X025393Y010115D01*
X025419Y010017D02*
X024930Y010017D01*
X024930Y009918D02*
X025472Y009918D01*
X025558Y009820D02*
X024930Y009820D01*
X025847Y009820D02*
X025925Y009820D01*
X025925Y009918D02*
X025847Y009918D01*
X025847Y010017D02*
X025925Y010017D01*
X025925Y010115D02*
X025847Y010115D01*
X025847Y010312D02*
X025925Y010312D01*
X025925Y010411D02*
X025847Y010411D01*
X025847Y010509D02*
X025925Y010509D01*
X025925Y010608D02*
X025847Y010608D01*
X025847Y010699D02*
X025847Y010699D01*
X026379Y010115D02*
X027145Y010115D01*
X027145Y010017D02*
X026353Y010017D01*
X026300Y009918D02*
X027145Y009918D01*
X027145Y009820D02*
X026214Y009820D01*
D20*
X020710Y006279D03*
X016550Y005479D03*
X015830Y005079D03*
X010630Y008359D03*
X010150Y008359D03*
X012630Y008679D03*
X010790Y010119D03*
X009750Y013719D03*
X017670Y009479D03*
X018230Y009399D03*
X018710Y009399D03*
X008390Y005559D03*
M02*
