G75*
G70*
%OFA0B0*%
%FSLAX24Y24*%
%IPPOS*%
%LPD*%
%AMOC8*
5,1,8,0,0,1.08239X$1,22.5*
%
%ADD10C,0.0000*%
%ADD11C,0.0800*%
%ADD12C,0.0560*%
%ADD13C,0.0780*%
%ADD14C,0.0690*%
%ADD15C,0.0780*%
%ADD16R,0.0780X0.0780*%
%ADD17OC8,0.0780*%
%ADD18C,0.0740*%
D10*
X000150Y003319D02*
X000150Y016704D01*
X027315Y016704D01*
X027315Y003319D01*
X000150Y003319D01*
D11*
X011233Y009571D03*
X012233Y009571D03*
X013233Y009571D03*
X014233Y009571D03*
X015233Y009571D03*
X016233Y009571D03*
X016233Y015571D03*
X015233Y015571D03*
X014233Y015571D03*
X013233Y015571D03*
X012233Y015571D03*
X011233Y015571D03*
D12*
X011233Y007638D02*
X011233Y007118D01*
X010233Y007118D02*
X010233Y007638D01*
X009233Y007638D02*
X009233Y007118D01*
X008233Y007118D02*
X008233Y007638D01*
X007233Y007638D02*
X007233Y007118D01*
X007233Y004638D02*
X007233Y004118D01*
X008233Y004118D02*
X008233Y004638D01*
X009233Y004638D02*
X009233Y004118D01*
X010233Y004118D02*
X010233Y004638D01*
X011233Y004638D02*
X011233Y004118D01*
X012233Y004118D02*
X012233Y004638D01*
X013233Y004638D02*
X013233Y004118D01*
X014233Y004118D02*
X014233Y004638D01*
X015233Y004638D02*
X015233Y004118D01*
X016233Y004118D02*
X016233Y004638D01*
X017233Y004638D02*
X017233Y004118D01*
X018233Y004118D02*
X018233Y004638D01*
X019233Y004638D02*
X019233Y004118D01*
X020233Y004118D02*
X020233Y004638D01*
X020233Y007118D02*
X020233Y007638D01*
X019233Y007638D02*
X019233Y007118D01*
X018233Y007118D02*
X018233Y007638D01*
X017233Y007638D02*
X017233Y007118D01*
X016233Y007118D02*
X016233Y007638D01*
X015233Y007638D02*
X015233Y007118D01*
X014233Y007118D02*
X014233Y007638D01*
X013233Y007638D02*
X013233Y007118D01*
X012233Y007118D02*
X012233Y007638D01*
D13*
X004383Y008146D03*
X001823Y008146D03*
X001823Y009712D03*
X004383Y009712D03*
X004383Y011492D03*
X004383Y013059D03*
X001823Y013059D03*
X001823Y011492D03*
X001823Y014839D03*
X004383Y014839D03*
X004383Y006366D03*
X001823Y006366D03*
X021804Y006984D03*
X021804Y003984D03*
X022394Y013039D03*
X025241Y015130D03*
X026241Y015130D03*
X022394Y016039D03*
D14*
X003103Y004893D03*
X003103Y003893D03*
D15*
X001504Y003909D02*
X000764Y003909D01*
X000764Y004909D02*
X001504Y004909D01*
D16*
X024770Y006479D03*
D17*
X025770Y006479D03*
X025770Y005479D03*
X024770Y005479D03*
X024770Y004479D03*
X025770Y004479D03*
D18*
X025886Y010199D03*
X022894Y010199D03*
M02*
