G75*
G70*
%OFA0B0*%
%FSLAX24Y24*%
%IPPOS*%
%LPD*%
%AMOC8*
5,1,8,0,0,1.08239X$1,22.5*
%
%ADD10C,0.0080*%
%ADD11C,0.0100*%
%ADD12C,0.0120*%
%ADD13C,0.0060*%
%ADD14C,0.0030*%
%ADD15C,0.0050*%
%ADD16C,0.0020*%
D10*
X002853Y004393D02*
X003353Y004393D01*
X003953Y006056D02*
X002253Y006056D01*
X001903Y006856D02*
X001903Y007660D01*
X002253Y008456D02*
X003953Y008456D01*
X004303Y007649D02*
X004303Y006856D01*
X002403Y007256D02*
X002405Y007308D01*
X002411Y007360D01*
X002421Y007412D01*
X002434Y007462D01*
X002451Y007512D01*
X002472Y007560D01*
X002497Y007606D01*
X002525Y007650D01*
X002556Y007692D01*
X002590Y007732D01*
X002627Y007769D01*
X002667Y007803D01*
X002709Y007834D01*
X002753Y007862D01*
X002799Y007887D01*
X002847Y007908D01*
X002897Y007925D01*
X002947Y007938D01*
X002999Y007948D01*
X003051Y007954D01*
X003103Y007956D01*
X003155Y007954D01*
X003207Y007948D01*
X003259Y007938D01*
X003309Y007925D01*
X003359Y007908D01*
X003407Y007887D01*
X003453Y007862D01*
X003497Y007834D01*
X003539Y007803D01*
X003579Y007769D01*
X003616Y007732D01*
X003650Y007692D01*
X003681Y007650D01*
X003709Y007606D01*
X003734Y007560D01*
X003755Y007512D01*
X003772Y007462D01*
X003785Y007412D01*
X003795Y007360D01*
X003801Y007308D01*
X003803Y007256D01*
X003801Y007204D01*
X003795Y007152D01*
X003785Y007100D01*
X003772Y007050D01*
X003755Y007000D01*
X003734Y006952D01*
X003709Y006906D01*
X003681Y006862D01*
X003650Y006820D01*
X003616Y006780D01*
X003579Y006743D01*
X003539Y006709D01*
X003497Y006678D01*
X003453Y006650D01*
X003407Y006625D01*
X003359Y006604D01*
X003309Y006587D01*
X003259Y006574D01*
X003207Y006564D01*
X003155Y006558D01*
X003103Y006556D01*
X003051Y006558D01*
X002999Y006564D01*
X002947Y006574D01*
X002897Y006587D01*
X002847Y006604D01*
X002799Y006625D01*
X002753Y006650D01*
X002709Y006678D01*
X002667Y006709D01*
X002627Y006743D01*
X002590Y006780D01*
X002556Y006820D01*
X002525Y006862D01*
X002497Y006906D01*
X002472Y006952D01*
X002451Y007000D01*
X002434Y007050D01*
X002421Y007100D01*
X002411Y007152D01*
X002405Y007204D01*
X002403Y007256D01*
X002253Y009402D02*
X003953Y009402D01*
X004303Y010202D02*
X004303Y010995D01*
X002403Y010602D02*
X002405Y010654D01*
X002411Y010706D01*
X002421Y010758D01*
X002434Y010808D01*
X002451Y010858D01*
X002472Y010906D01*
X002497Y010952D01*
X002525Y010996D01*
X002556Y011038D01*
X002590Y011078D01*
X002627Y011115D01*
X002667Y011149D01*
X002709Y011180D01*
X002753Y011208D01*
X002799Y011233D01*
X002847Y011254D01*
X002897Y011271D01*
X002947Y011284D01*
X002999Y011294D01*
X003051Y011300D01*
X003103Y011302D01*
X003155Y011300D01*
X003207Y011294D01*
X003259Y011284D01*
X003309Y011271D01*
X003359Y011254D01*
X003407Y011233D01*
X003453Y011208D01*
X003497Y011180D01*
X003539Y011149D01*
X003579Y011115D01*
X003616Y011078D01*
X003650Y011038D01*
X003681Y010996D01*
X003709Y010952D01*
X003734Y010906D01*
X003755Y010858D01*
X003772Y010808D01*
X003785Y010758D01*
X003795Y010706D01*
X003801Y010654D01*
X003803Y010602D01*
X003801Y010550D01*
X003795Y010498D01*
X003785Y010446D01*
X003772Y010396D01*
X003755Y010346D01*
X003734Y010298D01*
X003709Y010252D01*
X003681Y010208D01*
X003650Y010166D01*
X003616Y010126D01*
X003579Y010089D01*
X003539Y010055D01*
X003497Y010024D01*
X003453Y009996D01*
X003407Y009971D01*
X003359Y009950D01*
X003309Y009933D01*
X003259Y009920D01*
X003207Y009910D01*
X003155Y009904D01*
X003103Y009902D01*
X003051Y009904D01*
X002999Y009910D01*
X002947Y009920D01*
X002897Y009933D01*
X002847Y009950D01*
X002799Y009971D01*
X002753Y009996D01*
X002709Y010024D01*
X002667Y010055D01*
X002627Y010089D01*
X002590Y010126D01*
X002556Y010166D01*
X002525Y010208D01*
X002497Y010252D01*
X002472Y010298D01*
X002451Y010346D01*
X002434Y010396D01*
X002421Y010446D01*
X002411Y010498D01*
X002405Y010550D01*
X002403Y010602D01*
X001903Y010202D02*
X001903Y011007D01*
X002253Y011802D02*
X003953Y011802D01*
X003953Y012749D02*
X002253Y012749D01*
X001903Y013549D02*
X001903Y014353D01*
X002403Y013949D02*
X002405Y014001D01*
X002411Y014053D01*
X002421Y014105D01*
X002434Y014155D01*
X002451Y014205D01*
X002472Y014253D01*
X002497Y014299D01*
X002525Y014343D01*
X002556Y014385D01*
X002590Y014425D01*
X002627Y014462D01*
X002667Y014496D01*
X002709Y014527D01*
X002753Y014555D01*
X002799Y014580D01*
X002847Y014601D01*
X002897Y014618D01*
X002947Y014631D01*
X002999Y014641D01*
X003051Y014647D01*
X003103Y014649D01*
X003155Y014647D01*
X003207Y014641D01*
X003259Y014631D01*
X003309Y014618D01*
X003359Y014601D01*
X003407Y014580D01*
X003453Y014555D01*
X003497Y014527D01*
X003539Y014496D01*
X003579Y014462D01*
X003616Y014425D01*
X003650Y014385D01*
X003681Y014343D01*
X003709Y014299D01*
X003734Y014253D01*
X003755Y014205D01*
X003772Y014155D01*
X003785Y014105D01*
X003795Y014053D01*
X003801Y014001D01*
X003803Y013949D01*
X003801Y013897D01*
X003795Y013845D01*
X003785Y013793D01*
X003772Y013743D01*
X003755Y013693D01*
X003734Y013645D01*
X003709Y013599D01*
X003681Y013555D01*
X003650Y013513D01*
X003616Y013473D01*
X003579Y013436D01*
X003539Y013402D01*
X003497Y013371D01*
X003453Y013343D01*
X003407Y013318D01*
X003359Y013297D01*
X003309Y013280D01*
X003259Y013267D01*
X003207Y013257D01*
X003155Y013251D01*
X003103Y013249D01*
X003051Y013251D01*
X002999Y013257D01*
X002947Y013267D01*
X002897Y013280D01*
X002847Y013297D01*
X002799Y013318D01*
X002753Y013343D01*
X002709Y013371D01*
X002667Y013402D01*
X002627Y013436D01*
X002590Y013473D01*
X002556Y013513D01*
X002525Y013555D01*
X002497Y013599D01*
X002472Y013645D01*
X002451Y013693D01*
X002434Y013743D01*
X002421Y013793D01*
X002411Y013845D01*
X002405Y013897D01*
X002403Y013949D01*
X004303Y014341D02*
X004303Y013549D01*
X003953Y015149D02*
X002253Y015149D01*
X006333Y015471D02*
X007233Y016271D01*
X021133Y016271D01*
X021133Y008871D01*
X006333Y008871D01*
X006333Y015471D01*
X006333Y016271D01*
X007233Y016271D01*
X022094Y015539D02*
X022094Y013539D01*
X022394Y013539D01*
X022394Y013439D01*
X022394Y013539D02*
X022694Y013539D01*
X022694Y015539D01*
X022394Y015539D01*
X022394Y015639D01*
X022394Y015539D02*
X022094Y015539D01*
X024741Y015130D02*
X024743Y015193D01*
X024749Y015255D01*
X024759Y015317D01*
X024772Y015379D01*
X024790Y015439D01*
X024811Y015498D01*
X024836Y015556D01*
X024865Y015612D01*
X024897Y015666D01*
X024932Y015718D01*
X024970Y015767D01*
X025012Y015815D01*
X025056Y015859D01*
X025104Y015901D01*
X025153Y015939D01*
X025205Y015974D01*
X025259Y016006D01*
X025315Y016035D01*
X025373Y016060D01*
X025432Y016081D01*
X025492Y016099D01*
X025554Y016112D01*
X025616Y016122D01*
X025678Y016128D01*
X025741Y016130D01*
X025804Y016128D01*
X025866Y016122D01*
X025928Y016112D01*
X025990Y016099D01*
X026050Y016081D01*
X026109Y016060D01*
X026167Y016035D01*
X026223Y016006D01*
X026277Y015974D01*
X026329Y015939D01*
X026378Y015901D01*
X026426Y015859D01*
X026470Y015815D01*
X026512Y015767D01*
X026550Y015718D01*
X026585Y015666D01*
X026617Y015612D01*
X026646Y015556D01*
X026671Y015498D01*
X026692Y015439D01*
X026710Y015379D01*
X026723Y015317D01*
X026733Y015255D01*
X026739Y015193D01*
X026741Y015130D01*
X026739Y015067D01*
X026733Y015005D01*
X026723Y014943D01*
X026710Y014881D01*
X026692Y014821D01*
X026671Y014762D01*
X026646Y014704D01*
X026617Y014648D01*
X026585Y014594D01*
X026550Y014542D01*
X026512Y014493D01*
X026470Y014445D01*
X026426Y014401D01*
X026378Y014359D01*
X026329Y014321D01*
X026277Y014286D01*
X026223Y014254D01*
X026167Y014225D01*
X026109Y014200D01*
X026050Y014179D01*
X025990Y014161D01*
X025928Y014148D01*
X025866Y014138D01*
X025804Y014132D01*
X025741Y014130D01*
X025678Y014132D01*
X025616Y014138D01*
X025554Y014148D01*
X025492Y014161D01*
X025432Y014179D01*
X025373Y014200D01*
X025315Y014225D01*
X025259Y014254D01*
X025205Y014286D01*
X025153Y014321D01*
X025104Y014359D01*
X025056Y014401D01*
X025012Y014445D01*
X024970Y014493D01*
X024932Y014542D01*
X024897Y014594D01*
X024865Y014648D01*
X024836Y014704D01*
X024811Y014762D01*
X024790Y014821D01*
X024772Y014881D01*
X024759Y014943D01*
X024749Y015005D01*
X024743Y015067D01*
X024741Y015130D01*
X026741Y014380D02*
X026741Y015880D01*
X023969Y010208D02*
X023971Y010169D01*
X023977Y010131D01*
X023986Y010094D01*
X023999Y010057D01*
X024016Y010022D01*
X024035Y009989D01*
X024058Y009958D01*
X024084Y009929D01*
X024113Y009903D01*
X024144Y009880D01*
X024177Y009861D01*
X024212Y009844D01*
X024249Y009831D01*
X024286Y009822D01*
X024324Y009816D01*
X024363Y009814D01*
X024402Y009816D01*
X024440Y009822D01*
X024477Y009831D01*
X024514Y009844D01*
X024549Y009861D01*
X024582Y009880D01*
X024613Y009903D01*
X024642Y009929D01*
X024668Y009958D01*
X024691Y009989D01*
X024710Y010022D01*
X024727Y010057D01*
X024740Y010094D01*
X024749Y010131D01*
X024755Y010169D01*
X024757Y010208D01*
X024755Y010247D01*
X024749Y010285D01*
X024740Y010322D01*
X024727Y010359D01*
X024710Y010394D01*
X024691Y010427D01*
X024668Y010458D01*
X024642Y010487D01*
X024613Y010513D01*
X024582Y010536D01*
X024549Y010555D01*
X024514Y010572D01*
X024477Y010585D01*
X024440Y010594D01*
X024402Y010600D01*
X024363Y010602D01*
X024324Y010600D01*
X024286Y010594D01*
X024249Y010585D01*
X024212Y010572D01*
X024177Y010555D01*
X024144Y010536D01*
X024113Y010513D01*
X024084Y010487D01*
X024058Y010458D01*
X024035Y010427D01*
X024016Y010394D01*
X023999Y010359D01*
X023986Y010322D01*
X023977Y010285D01*
X023971Y010247D01*
X023969Y010208D01*
X024550Y006999D02*
X026070Y006999D01*
X026310Y006759D01*
X026310Y006199D01*
X026070Y005959D01*
X024470Y005959D01*
X024230Y006199D01*
X024230Y006679D01*
X024550Y006999D01*
X024070Y006679D02*
X024070Y006199D01*
X024470Y005959D02*
X024230Y005719D01*
X024230Y005239D01*
X024470Y004999D01*
X024230Y004759D01*
X024230Y004679D02*
X024230Y004199D01*
X024470Y003959D01*
X026070Y003959D01*
X026310Y004199D01*
X026310Y004759D01*
X026070Y004999D01*
X024550Y004999D01*
X026070Y004999D02*
X026310Y005239D01*
X026310Y005719D01*
X026070Y005959D01*
X022104Y006484D02*
X022104Y004484D01*
X021804Y004484D01*
X021804Y004384D01*
X021804Y004484D02*
X021504Y004484D01*
X021504Y006484D01*
X021804Y006484D01*
X021804Y006584D01*
X021804Y006484D02*
X022104Y006484D01*
X020733Y007078D02*
X020633Y007078D01*
X020733Y007078D02*
X020733Y004678D01*
X020633Y004678D01*
X006833Y004678D02*
X006733Y004678D01*
X006733Y005378D01*
X006777Y005380D01*
X006820Y005386D01*
X006862Y005395D01*
X006904Y005408D01*
X006944Y005425D01*
X006983Y005445D01*
X007020Y005468D01*
X007054Y005495D01*
X007087Y005524D01*
X007116Y005557D01*
X007143Y005591D01*
X007166Y005628D01*
X007186Y005667D01*
X007203Y005707D01*
X007216Y005749D01*
X007225Y005791D01*
X007231Y005834D01*
X007233Y005878D01*
X007231Y005922D01*
X007225Y005965D01*
X007216Y006007D01*
X007203Y006049D01*
X007186Y006089D01*
X007166Y006128D01*
X007143Y006165D01*
X007116Y006199D01*
X007087Y006232D01*
X007054Y006261D01*
X007020Y006288D01*
X006983Y006311D01*
X006944Y006331D01*
X006904Y006348D01*
X006862Y006361D01*
X006820Y006370D01*
X006777Y006376D01*
X006733Y006378D01*
X006733Y007078D01*
X006833Y007078D01*
D11*
X026741Y014380D02*
X026698Y014326D01*
X026652Y014274D01*
X026603Y014225D01*
X026551Y014178D01*
X026497Y014135D01*
X026441Y014094D01*
X026382Y014057D01*
X026322Y014023D01*
X026259Y013993D01*
X026196Y013966D01*
X026130Y013942D01*
X026064Y013922D01*
X025996Y013906D01*
X025928Y013894D01*
X025859Y013886D01*
X025790Y013881D01*
X025720Y013880D01*
X025651Y013883D01*
X025582Y013890D01*
X025514Y013901D01*
X025446Y013915D01*
X025379Y013934D01*
X025313Y013956D01*
X025248Y013981D01*
X025185Y014010D01*
X025124Y014043D01*
X025065Y014079D01*
X025008Y014118D01*
X024952Y014160D01*
X024900Y014205D01*
X024850Y014253D01*
X024803Y014304D01*
X024758Y014358D01*
X024717Y014413D01*
X024679Y014471D01*
X024644Y014531D01*
X024612Y014593D01*
X024584Y014656D01*
X024560Y014721D01*
X024539Y014787D01*
X024522Y014855D01*
X024508Y014923D01*
X024499Y014992D01*
X024493Y015061D01*
X024491Y015130D01*
X024493Y015199D01*
X024499Y015268D01*
X024508Y015337D01*
X024522Y015405D01*
X024539Y015473D01*
X024560Y015539D01*
X024584Y015604D01*
X024612Y015667D01*
X024644Y015729D01*
X024679Y015789D01*
X024717Y015847D01*
X024758Y015902D01*
X024803Y015956D01*
X024850Y016007D01*
X024900Y016055D01*
X024952Y016100D01*
X025008Y016142D01*
X025065Y016181D01*
X025124Y016217D01*
X025185Y016250D01*
X025248Y016279D01*
X025313Y016304D01*
X025379Y016326D01*
X025446Y016345D01*
X025514Y016359D01*
X025582Y016370D01*
X025651Y016377D01*
X025720Y016380D01*
X025790Y016379D01*
X025859Y016374D01*
X025928Y016366D01*
X025996Y016354D01*
X026064Y016338D01*
X026130Y016318D01*
X026196Y016294D01*
X026259Y016267D01*
X026322Y016237D01*
X026382Y016203D01*
X026441Y016166D01*
X026497Y016125D01*
X026551Y016082D01*
X026603Y016035D01*
X026652Y015986D01*
X026698Y015934D01*
X026741Y015880D01*
D12*
X026843Y010208D02*
X026840Y010086D01*
X026831Y009965D01*
X026816Y009844D01*
X026795Y009724D01*
X026769Y009605D01*
X026736Y009488D01*
X026698Y009373D01*
X026654Y009259D01*
X026605Y009148D01*
X026550Y009039D01*
X026490Y008933D01*
X026425Y008830D01*
X026355Y008731D01*
X026280Y008635D01*
X026201Y008543D01*
X026117Y008454D01*
X026028Y008370D01*
X025936Y008291D01*
X025840Y008216D01*
X025741Y008146D01*
X025638Y008081D01*
X025532Y008021D01*
X025423Y007966D01*
X025312Y007917D01*
X025198Y007873D01*
X025083Y007835D01*
X024966Y007802D01*
X024847Y007776D01*
X024727Y007755D01*
X024606Y007740D01*
X024485Y007731D01*
X024363Y007728D01*
X024245Y007731D01*
X024127Y007739D01*
X024010Y007753D01*
X023894Y007773D01*
X023778Y007798D01*
X023664Y007828D01*
X023552Y007864D01*
X023441Y007906D01*
X023333Y007952D01*
X023227Y008004D01*
X023123Y008060D01*
X023022Y008122D01*
X022924Y008188D01*
X022830Y008259D01*
X022739Y008334D01*
X022652Y008413D01*
X022568Y008497D01*
X022489Y008584D01*
X022414Y008675D01*
X022343Y008769D01*
X022277Y008867D01*
X022215Y008968D01*
X022159Y009072D01*
X022107Y009178D01*
X022061Y009286D01*
X022019Y009397D01*
X021983Y009509D01*
X021953Y009623D01*
X021928Y009739D01*
X021908Y009855D01*
X021894Y009972D01*
X021886Y010090D01*
X021883Y010208D01*
X024363Y012688D02*
X024485Y012685D01*
X024606Y012676D01*
X024727Y012661D01*
X024847Y012640D01*
X024966Y012614D01*
X025083Y012581D01*
X025198Y012543D01*
X025312Y012499D01*
X025423Y012450D01*
X025532Y012395D01*
X025638Y012335D01*
X025741Y012270D01*
X025840Y012200D01*
X025936Y012125D01*
X026028Y012046D01*
X026117Y011962D01*
X026201Y011873D01*
X026280Y011781D01*
X026355Y011685D01*
X026425Y011586D01*
X026490Y011483D01*
X026550Y011377D01*
X026605Y011268D01*
X026654Y011157D01*
X026698Y011043D01*
X026736Y010928D01*
X026769Y010811D01*
X026795Y010692D01*
X026816Y010572D01*
X026831Y010451D01*
X026840Y010330D01*
X026843Y010208D01*
X024363Y012688D02*
X024245Y012685D01*
X024127Y012677D01*
X024010Y012663D01*
X023894Y012643D01*
X023778Y012618D01*
X023664Y012588D01*
X023552Y012552D01*
X023441Y012510D01*
X023333Y012464D01*
X023227Y012412D01*
X023123Y012356D01*
X023022Y012294D01*
X022924Y012228D01*
X022830Y012157D01*
X022739Y012082D01*
X022652Y012003D01*
X022568Y011919D01*
X022489Y011832D01*
X022414Y011741D01*
X022343Y011647D01*
X022277Y011549D01*
X022215Y011448D01*
X022159Y011344D01*
X022107Y011238D01*
X022061Y011130D01*
X022019Y011019D01*
X021983Y010907D01*
X021953Y010793D01*
X021928Y010677D01*
X021908Y010561D01*
X021894Y010444D01*
X021886Y010326D01*
X021883Y010208D01*
D13*
X004979Y009046D02*
X004896Y009129D01*
X004729Y009129D01*
X004646Y009046D01*
X004646Y008712D01*
X004729Y008629D01*
X004896Y008629D01*
X004979Y008712D01*
X004979Y008879D01*
X004813Y008879D01*
X004469Y009129D02*
X004302Y009129D01*
X004385Y009129D02*
X004385Y008629D01*
X004302Y008629D02*
X004469Y008629D01*
X004120Y008712D02*
X004037Y008629D01*
X003870Y008629D01*
X003786Y008712D01*
X003870Y008879D02*
X004037Y008879D01*
X004120Y008795D01*
X004120Y008712D01*
X003870Y008879D02*
X003786Y008962D01*
X003786Y009046D01*
X003870Y009129D01*
X004037Y009129D01*
X004120Y009046D01*
X003089Y009129D02*
X002755Y009129D01*
X002755Y008629D01*
X003089Y008629D01*
X002922Y008879D02*
X002755Y008879D01*
X002573Y009129D02*
X002573Y008629D01*
X002239Y008629D02*
X002239Y009129D01*
X002406Y008962D01*
X002573Y009129D01*
X002062Y009129D02*
X001896Y009129D01*
X001979Y009129D02*
X001979Y008629D01*
X001896Y008629D02*
X002062Y008629D01*
X001547Y008629D02*
X001547Y009129D01*
X001380Y009129D02*
X001714Y009129D01*
X002180Y011989D02*
X002430Y011989D01*
X002514Y012072D01*
X002514Y012406D01*
X002430Y012489D01*
X002180Y012489D01*
X002180Y011989D01*
X002696Y012072D02*
X002696Y012406D01*
X002779Y012489D01*
X002946Y012489D01*
X003029Y012406D01*
X003029Y012072D01*
X002946Y011989D01*
X002779Y011989D01*
X002696Y012072D01*
X003211Y011989D02*
X003378Y012155D01*
X003545Y011989D01*
X003545Y012489D01*
X003727Y012489D02*
X004061Y011989D01*
X004061Y012489D01*
X003727Y012489D02*
X003727Y011989D01*
X003211Y011989D02*
X003211Y012489D01*
X002696Y015349D02*
X002696Y015849D01*
X002946Y015849D01*
X003029Y015766D01*
X003029Y015599D01*
X002946Y015515D01*
X002696Y015515D01*
X002514Y015432D02*
X002430Y015349D01*
X002263Y015349D01*
X002180Y015432D01*
X002180Y015849D01*
X002514Y015849D02*
X002514Y015432D01*
D14*
X007765Y006264D02*
X007862Y006264D01*
X007813Y006264D02*
X007813Y005974D01*
X007765Y005974D02*
X007862Y005974D01*
X007961Y006022D02*
X008010Y005974D01*
X008107Y005974D01*
X008155Y006022D01*
X008256Y005974D02*
X008450Y005974D01*
X008353Y005974D02*
X008353Y006264D01*
X008256Y006167D01*
X008155Y006216D02*
X008107Y006264D01*
X008010Y006264D01*
X007961Y006216D01*
X007961Y006022D01*
X008060Y005704D02*
X008253Y005704D01*
X008156Y005704D02*
X008156Y005414D01*
X007958Y005414D02*
X007958Y005607D01*
X007862Y005704D01*
X007765Y005607D01*
X007765Y005414D01*
X007765Y005559D02*
X007958Y005559D01*
X008354Y005414D02*
X008354Y005704D01*
X008451Y005607D01*
X008548Y005704D01*
X008548Y005414D01*
X008649Y005414D02*
X008842Y005414D01*
X008944Y005462D02*
X008992Y005414D01*
X009089Y005414D01*
X009137Y005462D01*
X009137Y005559D01*
X009040Y005559D01*
X008944Y005656D02*
X008944Y005462D01*
X008944Y005656D02*
X008992Y005704D01*
X009089Y005704D01*
X009137Y005656D01*
X009238Y005607D02*
X009335Y005704D01*
X009432Y005607D01*
X009432Y005414D01*
X009533Y005462D02*
X009581Y005414D01*
X009678Y005414D01*
X009726Y005462D01*
X009726Y005510D01*
X009678Y005559D01*
X009630Y005559D01*
X009678Y005559D02*
X009726Y005607D01*
X009726Y005656D01*
X009678Y005704D01*
X009581Y005704D01*
X009533Y005656D01*
X009432Y005559D02*
X009238Y005559D01*
X009238Y005607D02*
X009238Y005414D01*
X008842Y005704D02*
X008649Y005704D01*
X008649Y005414D01*
X008649Y005559D02*
X008746Y005559D01*
X009828Y005656D02*
X009876Y005704D01*
X009973Y005704D01*
X010021Y005656D01*
X010021Y005607D01*
X009828Y005414D01*
X010021Y005414D01*
X010122Y005462D02*
X010122Y005510D01*
X010171Y005559D01*
X010267Y005559D01*
X010316Y005510D01*
X010316Y005462D01*
X010267Y005414D01*
X010171Y005414D01*
X010122Y005462D01*
X010171Y005559D02*
X010122Y005607D01*
X010122Y005656D01*
X010171Y005704D01*
X010267Y005704D01*
X010316Y005656D01*
X010316Y005607D01*
X010267Y005559D01*
X010417Y005510D02*
X010562Y005510D01*
X010610Y005559D01*
X010610Y005656D01*
X010562Y005704D01*
X010417Y005704D01*
X010417Y005414D01*
X004064Y004214D02*
X003870Y004214D01*
X003967Y004214D02*
X003967Y004504D01*
X003870Y004407D01*
X003769Y004456D02*
X003721Y004504D01*
X003624Y004504D01*
X003576Y004456D01*
X003576Y004262D01*
X003624Y004214D01*
X003721Y004214D01*
X003769Y004262D01*
X021045Y004534D02*
X021045Y004679D01*
X021093Y004727D01*
X021190Y004727D01*
X021238Y004679D01*
X021238Y004534D01*
X021238Y004630D02*
X021335Y004727D01*
X021335Y004828D02*
X021335Y005022D01*
X021335Y004925D02*
X021045Y004925D01*
X021142Y004828D01*
X021045Y004534D02*
X021335Y004534D01*
X022805Y013574D02*
X022805Y013719D01*
X022853Y013767D01*
X022950Y013767D01*
X022998Y013719D01*
X022998Y013574D01*
X022998Y013670D02*
X023095Y013767D01*
X023095Y013868D02*
X022902Y014062D01*
X022853Y014062D01*
X022805Y014013D01*
X022805Y013917D01*
X022853Y013868D01*
X023095Y013868D02*
X023095Y014062D01*
X023095Y013574D02*
X022805Y013574D01*
D15*
X023135Y009234D02*
X023360Y009234D01*
X023435Y009159D01*
X023435Y009084D01*
X023360Y009009D01*
X023135Y009009D01*
X023135Y008784D02*
X023135Y009234D01*
X023360Y009009D02*
X023435Y008934D01*
X023435Y008859D01*
X023360Y008784D01*
X023135Y008784D01*
X023595Y008859D02*
X023670Y008784D01*
X023821Y008784D01*
X023896Y008859D01*
X023896Y009234D01*
X024056Y009234D02*
X024356Y009234D01*
X024356Y009159D01*
X024056Y008859D01*
X024056Y008784D01*
X024356Y008784D01*
X024516Y008784D02*
X024516Y008859D01*
X024816Y009159D01*
X024816Y009234D01*
X024516Y009234D01*
X024977Y009234D02*
X024977Y008784D01*
X025277Y008784D01*
X025437Y008784D02*
X025437Y009234D01*
X025662Y009234D01*
X025737Y009159D01*
X025737Y009009D01*
X025662Y008934D01*
X025437Y008934D01*
X025587Y008934D02*
X025737Y008784D01*
X025127Y009009D02*
X024977Y009009D01*
X024816Y008784D02*
X024516Y008784D01*
X024977Y009234D02*
X025277Y009234D01*
X023595Y009234D02*
X023595Y008859D01*
X023670Y005131D02*
X023820Y005131D01*
X023895Y005056D01*
X023895Y004831D01*
X024045Y004831D02*
X023595Y004831D01*
X023595Y005056D01*
X023670Y005131D01*
X023670Y004671D02*
X023595Y004596D01*
X023595Y004446D01*
X023670Y004371D01*
X023745Y004371D01*
X023820Y004446D01*
X023820Y004596D01*
X023895Y004671D01*
X023970Y004671D01*
X024045Y004596D01*
X024045Y004446D01*
X023970Y004371D01*
X024045Y004214D02*
X024045Y004064D01*
X024045Y004139D02*
X023595Y004139D01*
X023595Y004064D02*
X023595Y004214D01*
X009564Y009559D02*
X009414Y009409D01*
X009414Y009184D01*
X009104Y009184D02*
X009104Y009484D01*
X008954Y009634D01*
X008803Y009484D01*
X008803Y009184D01*
X008643Y009184D02*
X008343Y009184D01*
X008343Y009634D01*
X008183Y009559D02*
X008183Y009409D01*
X008108Y009334D01*
X007883Y009334D01*
X007883Y009184D02*
X007883Y009634D01*
X008108Y009634D01*
X008183Y009559D01*
X007723Y009559D02*
X007648Y009634D01*
X007497Y009634D01*
X007422Y009559D01*
X007422Y009484D01*
X007497Y009409D01*
X007648Y009409D01*
X007723Y009334D01*
X007723Y009259D01*
X007648Y009184D01*
X007497Y009184D01*
X007422Y009259D01*
X007266Y009184D02*
X007115Y009184D01*
X007190Y009184D02*
X007190Y009634D01*
X007115Y009634D02*
X007266Y009634D01*
X006955Y009559D02*
X006955Y009259D01*
X006880Y009184D01*
X006655Y009184D01*
X006655Y009634D01*
X006880Y009634D01*
X006955Y009559D01*
X008803Y009409D02*
X009104Y009409D01*
X009264Y009559D02*
X009414Y009409D01*
X009264Y009559D02*
X009264Y009634D01*
X009564Y009634D02*
X009564Y009559D01*
D16*
X002037Y003649D02*
X002000Y003685D01*
X002000Y003759D01*
X002037Y003795D01*
X002110Y003795D02*
X002110Y003722D01*
X002110Y003795D02*
X002183Y003795D01*
X002220Y003759D01*
X002220Y003685D01*
X002183Y003649D01*
X002037Y003649D01*
X002000Y003870D02*
X002220Y004016D01*
X002000Y004016D01*
X002000Y004091D02*
X002000Y004201D01*
X002037Y004237D01*
X002183Y004237D01*
X002220Y004201D01*
X002220Y004091D01*
X002000Y004091D01*
X002000Y003870D02*
X002220Y003870D01*
X002147Y004689D02*
X002000Y004689D01*
X002000Y004835D02*
X002147Y004835D01*
X002220Y004762D01*
X002147Y004689D01*
X002110Y004910D02*
X002110Y005056D01*
X002037Y004983D02*
X002183Y004983D01*
X001671Y005409D02*
X001597Y005482D01*
X001634Y005482D02*
X001524Y005482D01*
X001524Y005409D02*
X001524Y005629D01*
X001634Y005629D01*
X001671Y005592D01*
X001671Y005519D01*
X001634Y005482D01*
X001450Y005409D02*
X001303Y005409D01*
X001303Y005629D01*
X001450Y005629D01*
X001376Y005519D02*
X001303Y005519D01*
X001229Y005409D02*
X001229Y005629D01*
X001082Y005629D02*
X001082Y005409D01*
X001155Y005482D01*
X001229Y005409D01*
X001008Y005445D02*
X001008Y005592D01*
X000971Y005629D01*
X000898Y005629D01*
X000861Y005592D01*
X000861Y005445D01*
X000898Y005409D01*
X000971Y005409D01*
X001008Y005445D01*
X000787Y005519D02*
X000787Y005592D01*
X000750Y005629D01*
X000640Y005629D01*
X000640Y005409D01*
X000640Y005482D02*
X000750Y005482D01*
X000787Y005519D01*
X021680Y005506D02*
X021680Y005580D01*
X021717Y005616D01*
X021863Y005470D01*
X021900Y005506D01*
X021900Y005580D01*
X021863Y005616D01*
X021717Y005616D01*
X021680Y005691D02*
X021900Y005691D01*
X021827Y005691D02*
X021753Y005801D01*
X021827Y005691D02*
X021900Y005801D01*
X021863Y005470D02*
X021717Y005470D01*
X021680Y005506D01*
X021680Y005322D02*
X021900Y005322D01*
X021900Y005249D02*
X021900Y005395D01*
X021753Y005249D02*
X021680Y005322D01*
X022313Y013829D02*
X022240Y013902D01*
X022460Y013902D01*
X022460Y013829D02*
X022460Y013975D01*
X022423Y014050D02*
X022460Y014086D01*
X022460Y014160D01*
X022423Y014196D01*
X022350Y014196D01*
X022313Y014160D01*
X022313Y014123D01*
X022350Y014050D01*
X022240Y014050D01*
X022240Y014196D01*
X022277Y014271D02*
X022240Y014307D01*
X022240Y014381D01*
X022277Y014417D01*
X022423Y014271D01*
X022460Y014307D01*
X022460Y014381D01*
X022423Y014417D01*
X022277Y014417D01*
X022277Y014271D02*
X022423Y014271D01*
X022423Y014713D02*
X022277Y014713D01*
X022240Y014749D01*
X022240Y014823D01*
X022277Y014859D01*
X022423Y014859D01*
X022460Y014823D01*
X022460Y014749D01*
X022423Y014713D01*
X022460Y014934D02*
X022240Y014934D01*
X022313Y014970D02*
X022313Y015044D01*
X022350Y015080D01*
X022460Y015080D01*
X022460Y015155D02*
X022313Y015155D01*
X022313Y015191D01*
X022350Y015228D01*
X022313Y015265D01*
X022350Y015301D01*
X022460Y015301D01*
X022460Y015228D02*
X022350Y015228D01*
X022313Y014970D02*
X022350Y014934D01*
M02*
