%
M48
M72
T01C0.0240
T02C0.0276
T03C0.0320
T04C0.0354
T05C0.0400
T06C0.0440
%
T01
X18230Y9399
X17670Y9479
X16550Y5479
X8390Y5559
X20710Y6279
X18710Y9399
X9750Y13719
X10630Y8359
X12630Y8679
X15830Y5079
X10150Y8359
X10790Y10119
T02
X3103Y4893
X3103Y3893
T03
X7233Y4378
X8233Y4378
X9233Y4378
X10233Y4378
X11233Y4378
X12233Y4378
X13233Y4378
X14233Y4378
X15233Y4378
X16233Y4378
X17233Y4378
X18233Y4378
X19233Y4378
X20233Y4378
X20233Y7378
X19233Y7378
X18233Y7378
X17233Y7378
X16233Y7378
X15233Y7378
X14233Y7378
X13233Y7378
X12233Y7378
X11233Y7378
X10233Y7378
X9233Y7378
X8233Y7378
X7233Y7378
X25241Y15130
X26241Y15130
T04
X14233Y15571
X13233Y15571
X12233Y15571
X11233Y15571
X15233Y15571
X16233Y15571
X14233Y9571
X15233Y9571
X16233Y9571
X13233Y9571
X12233Y9571
X11233Y9571
X21804Y3984
X21804Y6984
X22394Y13039
X22394Y16039
X22894Y10199
X25886Y10199
T05
X1823Y14839
X4383Y14839
X1823Y13059
X4383Y13059
X1823Y11492
X4383Y11492
X1823Y9712
X4383Y9712
X1823Y8146
X4383Y8146
X1823Y6366
X4383Y6366
X24770Y6479
X25770Y6479
X24770Y5479
X25770Y5479
X24770Y4479
X25770Y4479
T06
X1134Y3909
X1134Y4909
M30
